<?xml version="1.0" encoding="UTF-8"?>
<svg version="1.1" xmlns="http://www.w3.org/2000/svg" width="500" height="500">
<path d="M0 0 C165 0 330 0 500 0 C500 165 500 330 500 500 C335 500 170 500 0 500 C0 335 0 170 0 0 Z " fill="#104547" transform="translate(0,0)"/>
<path d="M0 0 C4.25004671 -0.07485856 8.49973134 -0.12893167 12.75024414 -0.16479492 C14.19236955 -0.17976508 15.63445036 -0.20014868 17.07641602 -0.22631836 C35.30582684 -0.54857138 35.30582684 -0.54857138 41.640625 4.24023438 C44.28405421 6.93086768 45.32677927 9.39022051 45.5 13.0625 C44.99004918 17.07836267 44.56396542 18.9232415 42 22 C36.81081081 26 36.81081081 26 33 26 C33 26.66 33 27.32 33 28 C34.5159375 28.061875 34.5159375 28.061875 36.0625 28.125 C40.81742757 28.7738394 43.7967496 31.58862881 47 35 C48.88702287 38.77404575 48.62100358 42.89891693 48 47 C45.36772125 52.5246641 40.66211461 55.08873389 35.14306641 57.20166016 C28.6788016 58.84358543 21.99480029 58.40582919 15.375 58.25 C13.87893032 58.22989241 12.38283436 58.21164921 10.88671875 58.1953125 C7.25725762 58.15168115 3.62880181 58.08289303 0 58 C0.48699371 57.60949463 0.97398743 57.21898926 1.47573853 56.81665039 C3.4887589 54.41748573 3.38001704 53.04060541 3.38818359 49.93359375 C3.39764008 48.90242432 3.40709656 47.87125488 3.4168396 46.80883789 C3.41076691 45.69629639 3.40469421 44.58375488 3.3984375 43.4375 C3.40130768 42.29466553 3.40417786 41.15183105 3.40713501 39.97436523 C3.40917757 37.55679835 3.40363438 35.13921501 3.39111328 32.72167969 C3.37506321 29.01459915 3.39095641 25.308609 3.41015625 21.6015625 C3.40817385 19.25520592 3.40433025 16.90885002 3.3984375 14.5625 C3.40451019 13.4499585 3.41058289 12.33741699 3.4168396 11.19116211 C3.40738312 10.15999268 3.39792664 9.12882324 3.38818359 8.06640625 C3.38579681 7.15834229 3.38341003 6.25027832 3.38095093 5.31469727 C2.93159998 2.58439442 2.12462424 1.70367123 0 0 Z " fill="#F7F9F9" transform="translate(84,340)"/>
<path d="M0 0 C4.08920079 -0.10001808 8.17791311 -0.17200015 12.26806641 -0.21972656 C13.65491156 -0.23965342 15.04167482 -0.2668056 16.42822266 -0.30175781 C25.57851097 -0.52638583 34.84115772 -0.71307885 41.99194336 5.81982422 C45.17492693 9.33828446 46.38423113 12.39017887 46.5625 17.125 C46.15970171 22.97005077 44.4891533 26.47539067 40.375 30.6875 C33.56372222 35.88822934 26.30059768 36.35072948 18 36 C18.33 42.27 18.66 48.54 19 55 C20.65 55.66 22.3 56.32 24 57 C24 57.33 24 57.66 24 58 C16.08 58 8.16 58 0 58 C0.99 57.01 1.98 56.02 3 55 C3.45440062 52.62374208 3.45440062 52.62374208 3.38818359 49.93359375 C3.39764008 48.90242432 3.40709656 47.87125488 3.4168396 46.80883789 C3.41076691 45.69629639 3.40469421 44.58375488 3.3984375 43.4375 C3.40130768 42.29466553 3.40417786 41.15183105 3.40713501 39.97436523 C3.40917757 37.55679835 3.40363438 35.13921501 3.39111328 32.72167969 C3.37506321 29.01459915 3.39095641 25.308609 3.41015625 21.6015625 C3.40817385 19.25520592 3.40433025 16.90885002 3.3984375 14.5625 C3.40451019 13.4499585 3.41058289 12.33741699 3.4168396 11.19116211 C3.40738312 10.15999268 3.39792664 9.12882324 3.38818359 8.06640625 C3.38579681 7.15834229 3.38341003 6.25027832 3.38095093 5.31469727 C2.93159998 2.58439442 2.12462424 1.70367123 0 0 Z " fill="#F3F6F6" transform="translate(84,228)"/>
<path d="M0 0 C5.14333137 2.90044256 7.89573124 7.46381138 9.71875 12.99609375 C11.46726525 20.72426419 10.6641465 27.17231305 6.79296875 34.08984375 C3.62888852 38.48000506 -0.39461024 41.27353612 -5.76953125 42.2578125 C-13.3520818 42.86963205 -20.60346429 43.25495681 -26.76953125 38.2578125 C-32.74968857 31.7869756 -34.3134721 25.24115428 -34.13671875 16.55078125 C-33.45919371 10.47467901 -31.24796289 6.31087409 -26.5390625 2.41015625 C-17.66448915 -3.71373368 -9.91110534 -4.39469167 0 0 Z " fill="#F4F6F6" transform="translate(168.76953125,244.7421875)"/>
<path d="M0 0 C2.05078125 0.03255208 4.1015625 0.06510417 6.15234375 0.09765625 C8.30427964 6.18906167 8.30427964 6.18906167 9.28147888 8.95730591 C10.64461955 12.81877183 12.00929506 16.67968233 13.37695312 20.53955078 C15.74743452 27.23589245 18.11400665 33.93099024 20.3671875 40.66796875 C20.83112915 42.0432373 20.83112915 42.0432373 21.30444336 43.44628906 C21.85287843 45.08038239 22.39209814 46.71761011 22.92016602 48.35839844 C24.45221046 52.89680553 25.59918752 54.54450002 29.15234375 58.09765625 C21.56234375 58.09765625 13.97234375 58.09765625 6.15234375 58.09765625 C7.14234375 57.10765625 8.13234375 56.11765625 9.15234375 55.09765625 C8.86285755 49.40442773 7.56529022 44.74944214 6.15234375 39.09765625 C-0.44765625 39.09765625 -7.04765625 39.09765625 -13.84765625 39.09765625 C-15.16765625 44.70765625 -16.48765625 50.31765625 -17.84765625 56.09765625 C-16.52765625 56.75765625 -15.20765625 57.41765625 -13.84765625 58.09765625 C-18.13765625 58.09765625 -22.42765625 58.09765625 -26.84765625 58.09765625 C-25.19765625 56.77765625 -23.54765625 55.45765625 -21.84765625 54.09765625 C-20.54796601 51.91244263 -20.54796601 51.91244263 -19.76245117 49.49438477 C-19.44094086 48.61348175 -19.11943054 47.73257874 -18.78817749 46.82498169 C-18.32261948 45.4749556 -18.32261948 45.4749556 -17.84765625 44.09765625 C-17.39551254 42.84008011 -17.39551254 42.84008011 -16.93423462 41.55709839 C-16.00747053 38.96097338 -15.10657811 36.35701558 -14.2109375 33.75 C-13.54493662 31.82746885 -12.87892057 29.90494295 -12.21289062 27.98242188 C-11.17846484 24.98701575 -10.1450252 21.99127163 -9.11206055 18.99536133 C-8.10573717 16.07940998 -7.09598489 13.16466307 -6.0859375 10.25 C-5.62034172 8.89393898 -5.62034172 8.89393898 -5.14533997 7.51048279 C-4.85801498 6.6819429 -4.57069 5.85340302 -4.2746582 4.99975586 C-4.02247025 4.26824814 -3.77028229 3.53674042 -3.51045227 2.7830658 C-2.62532445 0.53229357 -2.45697868 0.12986145 0 0 Z " fill="#F8F9F9" transform="translate(108.84765625,115.90234375)"/>
<path d="M0 0 C4.44925398 2.31018957 6.83995635 4.50458448 9 9 C9.38476562 12.45751953 9.38476562 12.45751953 9.40625 16.3828125 C9.41708618 17.07889618 9.42792236 17.77497986 9.43908691 18.49215698 C9.48477618 21.45352731 9.4964575 24.41480505 9.51123047 27.37646484 C9.52691071 29.5455652 9.5598932 31.71393213 9.59375 33.8828125 C9.60083984 35.17590332 9.60792969 36.46899414 9.61523438 37.80126953 C9.70475559 41.32235467 9.70475559 41.32235467 13 44 C6.07 44 -0.86 44 -8 44 C-7.01 43.01 -6.02 42.02 -5 41 C-4.72624562 38.35358266 -4.62686847 35.94777493 -4.671875 33.3046875 C-4.67374817 32.55663849 -4.67562134 31.80858948 -4.67755127 31.03787231 C-4.68426665 29.45928479 -4.69817108 27.88071376 -4.71875 26.30224609 C-4.74997267 23.87712264 -4.7597276 21.45264849 -4.765625 19.02734375 C-4.7747923 17.49478368 -4.7851672 15.96223026 -4.796875 14.4296875 C-4.80112488 13.70055145 -4.80537476 12.97141541 -4.80975342 12.22018433 C-4.56090858 8.82203604 -4.56090858 8.82203604 -6 6 C-10.6204683 5.73343452 -13.78784186 6.16262757 -18 8 C-17.93115528 12.64530679 -17.84320696 17.28971059 -17.73754883 21.93432617 C-17.70429812 23.51430243 -17.67626654 25.09439752 -17.65356445 26.67456055 C-17.62001984 28.94631579 -17.56770773 31.21698203 -17.51171875 33.48828125 C-17.50532883 34.19463211 -17.4989389 34.90098297 -17.49235535 35.6287384 C-17.36280469 39.95136702 -17.21740555 40.78259445 -14 44 C-20.93 44 -27.86 44 -35 44 C-33.68 42.68 -32.36 41.36 -31 40 C-30.44880722 36.61586565 -30.44880722 36.61586565 -30.609375 32.828125 C-30.61786469 31.8044986 -30.61786469 31.8044986 -30.62652588 30.76019287 C-30.64884364 28.58940238 -30.69902492 26.42028794 -30.75 24.25 C-30.77007124 22.7747635 -30.78832093 21.29950101 -30.8046875 19.82421875 C-30.8486912 16.21560499 -30.91768417 12.60796619 -31 9 C-32.32 8.34 -33.64 7.68 -35 7 C-35 6.34 -35 5.68 -35 5 C-33.10751181 4.32389577 -31.2108398 3.65949561 -29.3125 3 C-28.25675781 2.62875 -27.20101563 2.2575 -26.11328125 1.875 C-23.21637944 1.0608143 -20.98299377 0.82290204 -18 1 C-17.67 2.32 -17.34 3.64 -17 5 C-16.03900391 4.45859375 -16.03900391 4.45859375 -15.05859375 3.90625 C-5.88068985 -1.0178117 -5.88068985 -1.0178117 0 0 Z " fill="#F5F7F7" transform="translate(382,354)"/>
<path d="M0 0 C0.33 12.54 0.66 25.08 1 38 C7.62071921 39.1698923 7.62071921 39.1698923 13 37 C13.07418046 32.64009127 13.12861544 28.28051721 13.16479492 23.92016602 C13.17987768 22.43702801 13.20034689 20.95393456 13.22631836 19.47094727 C13.26272616 17.33859255 13.27973073 15.20682765 13.29296875 13.07421875 C13.3086792 11.79119873 13.32438965 10.50817871 13.34057617 9.1862793 C13.28526651 6.01221665 13.28526651 6.01221665 11.48168945 4.05786133 C10.99273193 3.70876709 10.50377441 3.35967285 10 3 C12.10320063 2.49595192 14.20759791 1.99689492 16.3125 1.5 C17.48425781 1.2215625 18.65601563 0.943125 19.86328125 0.65625 C23 0 23 0 26 0 C26.01458252 1.1960083 26.02916504 2.3920166 26.04418945 3.62426758 C26.10212586 8.05816675 26.17935874 12.49155558 26.26245117 16.92504883 C26.2957225 18.84456098 26.32374754 20.76417148 26.34643555 22.68383789 C26.37994121 25.44199572 26.43225403 28.19925043 26.48828125 30.95703125 C26.49467117 31.81649857 26.5010611 32.67596588 26.50764465 33.56147766 C26.53733589 34.76238289 26.53733589 34.76238289 26.56762695 35.98754883 C26.58428154 37.04344963 26.58428154 37.04344963 26.60127258 38.12068176 C27.10984731 40.51774228 28.16148131 41.44076443 30 43 C26.57767028 44.14077657 23.91326783 44.09815117 20.3125 44.0625 C18.54326172 44.04896484 18.54326172 44.04896484 16.73828125 44.03515625 C15.83464844 44.02355469 14.93101562 44.01195312 14 44 C13.67 42.68 13.34 41.36 13 40 C11.906875 40.66 10.81375 41.32 9.6875 42 C4.54408556 44.56255524 -0.35344258 44.88504035 -6 44 C-9.66780332 41.90411239 -11.49429514 39.8991568 -13 36 C-13.22705078 32.70019531 -13.22705078 32.70019531 -13.1953125 28.828125 C-13.1924826 28.1457074 -13.18965271 27.46328979 -13.18673706 26.76019287 C-13.17558098 24.58994693 -13.15048557 22.42012029 -13.125 20.25 C-13.11496426 18.77474556 -13.10583944 17.29948463 -13.09765625 15.82421875 C-13.07565687 12.21601058 -13.04115883 8.60804625 -13 5 C-14.32 4.34 -15.64 3.68 -17 3 C-11.32429789 0.92352362 -6.04393188 0 0 0 Z " fill="#F7F9F9" transform="translate(154,355)"/>
<path d="M0 0 C3.37234391 2.92269806 4.98488476 4.96976952 7 9 C7 12.3 7 15.6 7 19 C-1.58 19 -10.16 19 -19 19 C-17.85700954 29.14069143 -17.85700954 29.14069143 -12 35 C-8.77544247 36.61227876 -5.496251 36.46900928 -2 36 C0.81901736 34.90583902 3.40449079 33.5462608 6 32 C5.1689292 35.63593477 3.66971955 37.62894905 0.75 39.8125 C-4.99663091 43.14891391 -11.57260256 42.8947653 -18 42 C-24.45280755 39.26431871 -28.84779048 35.30441903 -32 29 C-34.16509767 21.91422582 -33.66509987 14.75894335 -30.3984375 8.14453125 C-27.27435755 3.35369356 -23.1255824 0.01850823 -18 -2.4375 C-11.05978669 -3.73879 -6.25419435 -3.42210634 0 0 Z " fill="#F6F8F8" transform="translate(275,357)"/>
<path d="M0 0 C0.00879936 1.07994987 0.00879936 1.07994987 0.01777649 2.18171692 C0.07566863 8.96513026 0.14772514 15.74826098 0.23571491 22.53134632 C0.28045208 26.0186768 0.31970032 29.50588957 0.34643555 32.9934082 C0.37740851 37.00241787 0.43219816 41.01079367 0.48828125 45.01953125 C0.49467117 46.27272659 0.5010611 47.52592194 0.50764465 48.8170929 C0.53733589 50.55855843 0.53733589 50.55855843 0.56762695 52.33520508 C0.57873001 53.35890701 0.58983307 54.38260895 0.60127258 55.43733215 C0.80306419 58.39305304 0.80306419 58.39305304 4 61 C-2.93 61 -9.86 61 -17 61 C-16.67 60.34 -16.34 59.68 -16 59 C-15.34 59 -14.68 59 -14 59 C-13.92406017 51.5069832 -13.87144668 44.01406529 -13.83520508 36.52075195 C-13.82009995 33.97058402 -13.79961467 31.42044214 -13.77368164 28.87036133 C-13.73737496 25.20908181 -13.72029085 21.54814515 -13.70703125 17.88671875 C-13.69154739 16.7428923 -13.67606354 15.59906586 -13.66011047 14.420578 C-13.65988388 13.35970474 -13.65965729 12.29883148 -13.65942383 11.20581055 C-13.65276199 10.27093307 -13.64610016 9.3360556 -13.63923645 8.37284851 C-14.06224839 5.59057391 -14.83201813 4.72216628 -17 3 C-14.73194205 2.30190555 -12.46133393 1.61628983 -10.1875 0.9375 C-9.54490234 0.73833984 -8.90230469 0.53917969 -8.24023438 0.33398438 C-3.33984375 -1.11328125 -3.33984375 -1.11328125 0 0 Z " fill="#F6F8F8" transform="translate(233,337)"/>
<path d="M0 0 C0.00879936 1.07994987 0.00879936 1.07994987 0.01777649 2.18171692 C0.07566863 8.96513026 0.14772514 15.74826098 0.23571491 22.53134632 C0.28045208 26.0186768 0.31970032 29.50588957 0.34643555 32.9934082 C0.37740851 37.00241787 0.43219816 41.01079367 0.48828125 45.01953125 C0.49467117 46.27272659 0.5010611 47.52592194 0.50764465 48.8170929 C0.53733589 50.55855843 0.53733589 50.55855843 0.56762695 52.33520508 C0.57873001 53.35890701 0.58983307 54.38260895 0.60127258 55.43733215 C0.80306419 58.39305304 0.80306419 58.39305304 4 61 C-2.93 61 -9.86 61 -17 61 C-16.01 60.01 -15.02 59.02 -14 58 C-13.54559938 55.62374208 -13.54559938 55.62374208 -13.61181641 52.93359375 C-13.60235992 51.90242432 -13.59290344 50.87125488 -13.5831604 49.80883789 C-13.58923309 48.69629639 -13.59530579 47.58375488 -13.6015625 46.4375 C-13.59869232 45.29466553 -13.59582214 44.15183105 -13.59286499 42.97436523 C-13.59082243 40.55679835 -13.59636562 38.13921501 -13.60888672 35.72167969 C-13.62493679 32.01459915 -13.60904359 28.308609 -13.58984375 24.6015625 C-13.59182615 22.25520592 -13.59566975 19.90885002 -13.6015625 17.5625 C-13.59548981 16.4499585 -13.58941711 15.33741699 -13.5831604 14.19116211 C-13.59261688 13.15999268 -13.60207336 12.12882324 -13.61181641 11.06640625 C-13.61420319 10.15834229 -13.61658997 9.25027832 -13.61904907 8.31469727 C-14.06840002 5.58439442 -14.87537576 4.70367123 -17 3 C-15.906875 2.690625 -14.81375 2.38125 -13.6875 2.0625 C-8.78134227 0.64886133 -5.13764778 -0.09693675 0 0 Z " fill="#F7F9F9" transform="translate(206,337)"/>
<path d="M0 0 C0.00879936 1.07994987 0.00879936 1.07994987 0.01777649 2.18171692 C0.07566863 8.96513026 0.14772514 15.74826098 0.23571491 22.53134632 C0.28045208 26.0186768 0.31970032 29.50588957 0.34643555 32.9934082 C0.37740851 37.00241787 0.43219816 41.01079367 0.48828125 45.01953125 C0.49467117 46.27272659 0.5010611 47.52592194 0.50764465 48.8170929 C0.53733589 50.55855843 0.53733589 50.55855843 0.56762695 52.33520508 C0.57873001 53.35890701 0.58983307 54.38260895 0.60127258 55.43733215 C0.80306419 58.39305304 0.80306419 58.39305304 4 61 C-2.93 61 -9.86 61 -17 61 C-16.01 60.01 -15.02 59.02 -14 58 C-13.52778579 55.56247751 -13.52778579 55.56247751 -13.56762695 52.79418945 C-13.53793571 51.20287956 -13.53793571 51.20287956 -13.50764465 49.579422 C-13.50125473 48.43559555 -13.49486481 47.2917691 -13.48828125 46.11328125 C-13.46135445 44.35506294 -13.46135445 44.35506294 -13.43388367 42.56132507 C-13.37963346 38.81175349 -13.34583698 35.06231026 -13.3125 31.3125 C-13.27934001 28.77276854 -13.2448516 26.23305405 -13.20898438 23.69335938 C-13.12389846 17.46235468 -13.05561091 11.23133367 -13 5 C-14.32 4.67 -15.64 4.34 -17 4 C-14.23330134 2.15553423 -12.76897662 1.55100862 -9.625 0.875 C-8.87476563 0.70742187 -8.12453125 0.53984375 -7.3515625 0.3671875 C-4.8643317 -0.02118409 -2.5134205 -0.02451354 0 0 Z " fill="#F7F9F9" transform="translate(201,225)"/>
<path d="M0 0 C6.93 0 13.86 0 21 0 C20.34 0.66 19.68 1.32 19 2 C19.30619258 8.03748963 21.41160417 13.33665243 23.5625 18.9375 C23.89185547 19.81212891 24.22121094 20.68675781 24.56054688 21.58789062 C25.36737838 23.72774809 26.18063181 25.86491864 27 28 C33.26448842 15.48529871 33.26448842 15.48529871 35 2 C34.34 1.34 33.68 0.68 33 0 C36.63 0 40.26 0 44 0 C43.25741943 0.77690186 42.51483887 1.55380371 41.74975586 2.35424805 C38.27887315 6.53506843 36.76001816 11.24983229 35.00390625 16.33203125 C34.64787827 17.32321457 34.29185028 18.31439789 33.92503357 19.33561707 C32.79223025 22.49046478 31.67546959 25.65060524 30.5625 28.8125 C29.09868376 32.97001857 27.61864167 37.12123956 26.12890625 41.26953125 C25.80370499 42.2104512 25.47850372 43.15137115 25.14344788 44.12080383 C19.96299588 58.53610422 19.96299588 58.53610422 14.03175354 62.22370911 C10.87465607 63.42997058 8.33878126 63.35772656 5 63 C2.11446618 61.00232274 1.17281989 59.88570196 0.5 56.4375 C1 54 1 54 2.625 52.125 C5.87582151 50.58513718 7.60534652 50.91659995 11 52 C12.6875 54 12.6875 54 14 56 C14.99 56.33 15.98 56.66 17 57 C20.23817482 48.14898884 20.15166386 42.94569875 16.484375 34.453125 C16.11274231 33.56010681 15.74110962 32.66708862 15.35821533 31.74700928 C14.57234939 29.86791118 13.77845607 27.99215247 12.97705078 26.11962891 C11.7511227 23.25262559 10.5514214 20.37571198 9.35546875 17.49609375 C8.58745119 15.66863394 7.81796964 13.84178857 7.046875 12.015625 C6.68736755 11.15624329 6.32786011 10.29686157 5.9574585 9.41143799 C5.44242767 8.2143924 5.44242767 8.2143924 4.91699219 6.99316406 C4.61863464 6.29257874 4.3202771 5.59199341 4.01287842 4.87017822 C2.91390323 2.62887955 2.91390323 2.62887955 0 0 Z " fill="#F8FAFA" transform="translate(281,244)"/>
<path d="M0 0 C7.59 0 15.18 0 23 0 C21.68 0.99 20.36 1.98 19 3 C18.3956034 5.31962868 18.3956034 5.31962868 18.48242188 7.95874023 C18.46981323 8.96666122 18.45720459 9.97458221 18.44421387 11.01304626 C18.45231079 12.10057693 18.46040771 13.1881076 18.46875 14.30859375 C18.46300964 15.98599388 18.46300964 15.98599388 18.45715332 17.69728088 C18.45442982 20.06357726 18.46182145 22.42990352 18.47851562 24.79614258 C18.49989744 28.42011677 18.47873743 32.04210373 18.453125 35.66601562 C18.45576859 37.96354605 18.46089421 40.26107524 18.46875 42.55859375 C18.46065308 43.64410019 18.45255615 44.72960663 18.44421387 45.8480072 C18.45682251 46.85908035 18.46943115 47.8701535 18.48242188 48.91186523 C18.48560425 49.7999437 18.48878662 50.68802216 18.49206543 51.60301208 C18.90668583 54.63356788 18.90668583 54.63356788 23 58 C15.41 58 7.82 58 0 58 C0.33 57.34 0.66 56.68 1 56 C1.99 56 2.98 56 4 56 C4 38.51 4 21.02 4 3 C2.68 2.34 1.36 1.68 0 1 C0 0.67 0 0.34 0 0 Z " fill="#FDFEFE" transform="translate(142,116)"/>
<path d="M0 0 C8.25 0 16.5 0 25 0 C25 0.33 25 0.66 25 1 C22.36 1 19.72 1 17 1 C17 9.58 17 18.16 17 27 C19.64 27 22.28 27 25 27 C25 27.33 25 27.66 25 28 C22.36 28 19.72 28 17 28 C17 37.57 17 47.14 17 57 C18.98 57 20.96 57 23 57 C23 57.33 23 57.66 23 58 C15.41 58 7.82 58 0 58 C0.99 57.01 1.98 56.02 3 55 C3.45440062 52.62374208 3.45440062 52.62374208 3.38818359 49.93359375 C3.39764008 48.90242432 3.40709656 47.87125488 3.4168396 46.80883789 C3.41076691 45.69629639 3.40469421 44.58375488 3.3984375 43.4375 C3.40130768 42.29466553 3.40417786 41.15183105 3.40713501 39.97436523 C3.40917757 37.55679835 3.40363438 35.13921501 3.39111328 32.72167969 C3.37506321 29.01459915 3.39095641 25.308609 3.41015625 21.6015625 C3.40817385 19.25520592 3.40433025 16.90885002 3.3984375 14.5625 C3.40451019 13.4499585 3.41058289 12.33741699 3.4168396 11.19116211 C3.40738312 10.15999268 3.39792664 9.12882324 3.38818359 8.06640625 C3.38579681 7.15834229 3.38341003 6.25027832 3.38095093 5.31469727 C3.16162917 2.57873885 3.16162917 2.57873885 0 0 Z " fill="#FAFBFB" transform="translate(84,340)"/>
<path d="M0 0 C2.70958127 1.94870896 5.04538609 3.71577217 6.5625 6.75 C6.98386557 9.62933136 6.97910317 11.078806 5.4375 13.5625 C2.63242828 15.33904542 0.80395792 15.29024299 -2.4375 14.75 C-6.10196729 10.83281083 -6.11412134 5.86830359 -6.4375 0.75 C-10.54812043 0.98715118 -12.76810981 1.11584087 -15.8125 4 C-19.63936352 10.47623057 -19.29853616 19.16684691 -17.94140625 26.390625 C-16.88534679 29.99435331 -15.72306385 32.40564359 -13.3125 35.3125 C-9.28568541 37.3259073 -5.85060709 37.69011612 -1.4375 36.75 C0.9195518 35.30680515 2.56319964 33.70053693 4.5625 31.75 C5.2225 31.75 5.8825 31.75 6.5625 31.75 C5.20602598 36.18936951 3.39441061 38.1656882 -0.4375 40.75 C-6.27769642 43.53964709 -12.08962793 43.48687511 -18.4375 42.75 C-24.64995623 40.5305579 -28.08133131 36.2419124 -31.4375 30.75 C-33.48446529 24.60910412 -33.5244123 17.17645448 -31.56640625 11.00390625 C-28.32965616 4.7108151 -23.92484723 1.37742871 -17.625 -1.5625 C-11.28299937 -2.93038249 -5.73145796 -3.43043064 0 0 Z " fill="#F6F8F8" transform="translate(269.4375,244.25)"/>
<path d="M0 0 C0.33 0 0.66 0 1 0 C1 3.96 1 7.92 1 12 C4.3 12 7.6 12 11 12 C11 12.33 11 12.66 11 13 C7.7 13 4.4 13 1 13 C1.11810088 17.9480849 1.2423384 22.89596276 1.37231445 27.84375 C1.41567817 29.52762642 1.4573522 31.21154723 1.49731445 32.89550781 C1.55498234 35.31328724 1.6186865 37.73084295 1.68359375 40.1484375 C1.70030624 40.9036972 1.71701874 41.65895691 1.73423767 42.43710327 C1.77555107 46.34739799 1.77555107 46.34739799 3 50 C6.94727588 50.17942163 9.5980513 50.09350689 13 48 C12.04908327 50.50696229 11.06198622 51.94401245 9.0625 53.75 C4.40889412 55.64943097 -0.04517437 55.69189007 -5 55 C-8.00197464 53.19881522 -9.45166366 52.09667268 -11 49 C-11.08675538 46.30106819 -11.11557897 43.62830769 -11.09765625 40.9296875 C-11.0962413 40.13345978 -11.09482635 39.33723206 -11.09336853 38.51687622 C-11.08776345 35.9695462 -11.07521014 33.42230353 -11.0625 30.875 C-11.05748565 29.14974085 -11.05292263 27.42448033 -11.04882812 25.69921875 C-11.03779237 21.46611209 -11.02052436 17.23307086 -11 13 C-12.65 13 -14.3 13 -16 13 C-15.44570313 12.7628125 -14.89140625 12.525625 -14.3203125 12.28125 C-11.44851733 10.69547758 -9.28854348 8.71901908 -6.875 6.5 C-5.57175781 5.30890625 -5.57175781 5.30890625 -4.2421875 4.09375 C-2.80591578 2.75256247 -1.38954317 1.38954317 0 0 Z " fill="#FCFDFD" transform="translate(304,344)"/>
<path d="M0 0 C2.84780619 2.23206431 3.84997666 3.54992999 5 7 C5.26225163 11.43324452 5.23147038 15.87233969 5.25 20.3125 C5.270625 21.53646484 5.29125 22.76042969 5.3125 24.02148438 C5.31765625 25.20677734 5.3228125 26.39207031 5.328125 27.61328125 C5.34214355 29.23423706 5.34214355 29.23423706 5.35644531 30.88793945 C4.92351134 34.66780886 3.7590537 38.2409463 1 41 C-1.85687071 41.2303928 -4.20395778 41.41631212 -7 41 C-9.92948691 38.25951225 -10.92566627 35.35499779 -11.14526367 31.35205078 C-11.16978402 27.94293182 -11.18565718 24.53421403 -11.1875 21.125 C-11.19974609 19.94035156 -11.21199219 18.75570313 -11.22460938 17.53515625 C-11.22654297 16.39175781 -11.22847656 15.24835938 -11.23046875 14.0703125 C-11.23457764 13.02633301 -11.23868652 11.98235352 -11.24291992 10.90673828 C-10.92829145 7.14194769 -9.88972248 4.29009759 -7.75 1.1875 C-5.05389163 -0.64200211 -3.17463065 -0.45351866 0 0 Z " fill="#134749" transform="translate(160,244)"/>
<path d="M0 0 C0.01981934 1.23153809 0.03963867 2.46307617 0.06005859 3.73193359 C0.13599182 8.29057661 0.22472763 12.84889527 0.31738281 17.40722656 C0.35572349 19.38209644 0.3905673 21.35703736 0.421875 23.33203125 C0.46741547 26.16692545 0.52542715 29.0013283 0.5859375 31.8359375 C0.59748871 32.72243988 0.60903992 33.60894226 0.62094116 34.52230835 C0.64081085 35.34300812 0.66068054 36.16370789 0.68115234 37.00927734 C0.69447601 37.73319672 0.70779968 38.45711609 0.7215271 39.20297241 C0.85787921 41.25153495 0.85787921 41.25153495 3 43 C-3.6 43 -10.2 43 -17 43 C-16.67 42.34 -16.34 41.68 -16 41 C-15.34 41 -14.68 41 -14 41 C-14 29.78 -14 18.56 -14 7 C-14.99 6.67 -15.98 6.34 -17 6 C-17 5.34 -17 4.68 -17 4 C-15.10751181 3.32389577 -13.2108398 2.65949561 -11.3125 2 C-10.25675781 1.62875 -9.20101562 1.2575 -8.11328125 0.875 C-5.18939892 0.05323132 -3.00178987 -0.07120628 0 0 Z " fill="#F5F7F7" transform="translate(228,243)"/>
<path d="M0 0 C0.01458252 1.1960083 0.02916504 2.3920166 0.04418945 3.62426758 C0.10212586 8.05816675 0.17935874 12.49155558 0.26245117 16.92504883 C0.2957225 18.84456098 0.32374754 20.76417148 0.34643555 22.68383789 C0.37994121 25.44199572 0.43225403 28.19925043 0.48828125 30.95703125 C0.49467117 31.81649857 0.5010611 32.67596588 0.50764465 33.56147766 C0.53733589 34.76238289 0.53733589 34.76238289 0.56762695 35.98754883 C0.57873001 36.6914827 0.58983307 37.39541656 0.60127258 38.12068176 C0.92034747 40.4652999 0.92034747 40.4652999 4 43 C-2.93 43 -9.86 43 -17 43 C-15.68 42.34 -14.36 41.68 -13 41 C-12.92594113 36.33694962 -12.87144237 31.67424016 -12.83520508 27.01074219 C-12.82010186 25.42376749 -12.79961777 23.83683463 -12.77368164 22.25 C-12.73736405 19.97124927 -12.72028977 17.69304942 -12.70703125 15.4140625 C-12.69154739 14.70255035 -12.67606354 13.99103821 -12.66011047 13.25796509 C-12.62453492 11.04245596 -12.62453492 11.04245596 -13 8 C-13.99 7.34 -14.98 6.68 -16 6 C-16 5.34 -16 4.68 -16 4 C-14.08594633 3.32586789 -12.16863974 2.6609668 -10.25 2 C-9.18265625 1.62875 -8.1153125 1.2575 -7.015625 0.875 C-4 0 -4 0 0 0 Z " fill="#FCFCFC" transform="translate(338,355)"/>
<path d="M0 0 C0 1.98 0 3.96 0 6 C0.66 6.33 1.32 6.66 2 7 C1.98428955 7.98395752 1.9685791 8.96791504 1.95239258 9.98168945 C1.89809022 13.63248508 1.86364915 17.28324501 1.83520508 20.93432617 C1.82011906 22.51446536 1.7996475 24.09456269 1.77368164 25.67456055 C1.73728874 27.94590585 1.72027238 30.21669759 1.70703125 32.48828125 C1.69154739 33.19463211 1.67606354 33.90098297 1.66011047 34.6287384 C1.6256893 36.86275932 1.6256893 36.86275932 2 40 C2.99 40.99 3.98 41.98 5 43 C-1.93 43 -8.86 43 -16 43 C-14.68 41.68 -13.36 40.36 -12 39 C-11.44880722 35.61586565 -11.44880722 35.61586565 -11.609375 31.828125 C-11.61786469 30.8044986 -11.61786469 30.8044986 -11.62652588 29.76019287 C-11.64884364 27.58940238 -11.69902492 25.42028794 -11.75 23.25 C-11.77007124 21.7747635 -11.78832093 20.29950101 -11.8046875 18.82421875 C-11.8486912 15.21560499 -11.91768417 11.60796619 -12 8 C-13.32 7.34 -14.64 6.68 -16 6 C-16 5.34 -16 4.68 -16 4 C-14.08594633 3.32586789 -12.16863974 2.6609668 -10.25 2 C-9.18265625 1.62875 -8.1153125 1.2575 -7.015625 0.875 C-4 0 -4 0 0 0 Z " fill="#FCFDFD" transform="translate(363,355)"/>
<path d="M0 0 C7.20875879 -0.37940836 12.15065996 0.53057196 17.8125 5.4375 C22.83347097 11.31920885 22 13.45256955 22 22 C13.42 22 4.84 22 -4 22 C-4 7.625 -4 7.625 0 2 C0 1.34 0 0.68 0 0 Z " fill="#F4F6F6" transform="translate(260,354)"/>
<path d="M0 0 C11 0 11 0 14.625 2.3125 C18.11294235 6.25938213 18.34732437 9.52343554 18.28125 14.578125 C17.8166765 18.57861903 16.39562255 21.77694203 14 25 C9.50587317 28.08168697 5.8066393 27 0 27 C0 18.09 0 9.18 0 0 Z " fill="#1A4D4F" transform="translate(101,369)"/>
<path d="M0 0 C7.96153846 0 7.96153846 0 12 3 C15.74420787 6.74420787 15.2156636 11.26815392 15.3125 16.375 C15.34988281 17.66148437 15.38726562 18.94796875 15.42578125 20.2734375 C14.93439883 24.57416069 13.68394885 26.65507868 11 30 C7.26994824 32.82969444 5.21944378 32 0 32 C0 21.44 0 10.88 0 0 Z " fill="#124648" transform="translate(102,230)"/>
<path d="M0 0 C9 0 9 0 13 2 C15.34276531 5.29031689 15.3292427 8.4794934 15.375 12.4375 C15.40335938 13.54996094 15.43171875 14.66242188 15.4609375 15.80859375 C14.9039495 19.66502764 13.73850256 21.27632688 11 24 C8 25 8 25 0 25 C0 16.75 0 8.5 0 0 Z " fill="#1A4D4F" transform="translate(101,342)"/>
<path d="M0 0 C2.30777791 2.30777791 2.7537088 3.84654148 3.7265625 6.9375 C4.0359375 7.91460937 4.3453125 8.89171875 4.6640625 9.8984375 C4.98117188 10.92195312 5.29828125 11.94546875 5.625 13 C5.94984375 14.02351562 6.2746875 15.04703125 6.609375 16.1015625 C9 23.71540179 9 23.71540179 9 26 C3.06 26 -2.88 26 -9 26 C-3.12727273 3.12727273 -3.12727273 3.12727273 0 0 Z " fill="#194C4E" transform="translate(105,127)"/>
<path d="M0 0 C3.375 0.125 3.375 0.125 7 1 C11.21909042 6.31470843 10.21427771 11.50024266 10 18 C5.05 18 0.1 18 -5 18 C-5.57242827 6.26522043 -5.57242827 6.26522043 -1 1 C-0.67 0.67 -0.34 0.34 0 0 Z " fill="#174A4C" transform="translate(261,356)"/>
<path d="M0 0 C0.33 0 0.66 0 1 0 C1.85685384 5.56954996 -0.3102167 8.61213995 -3.296875 13.046875 C-6.10068965 16.26225877 -8.29031293 16.9239621 -12.5 17.375 C-16 17 -16 17 -18.4375 15.3125 C-20 13 -20 13 -20.5 10.4375 C-20 8 -20 8 -18.375 6.125 C-15.12417849 4.58513718 -13.39465348 4.91659995 -10 6 C-8.3125 8 -8.3125 8 -7 10 C-6.01 10.33 -5.02 10.66 -4 11 C-3.71125 10.113125 -3.4225 9.22625 -3.125 8.3125 C-2.16851252 5.49617576 -1.13201054 2.74916844 0 0 Z " fill="#F3F5F5" transform="translate(302,290)"/>
<path d="M0 0 C4.91511194 1.34048507 4.91511194 1.34048507 6.4375 3.9375 C6.97818562 7.56781776 6.90129841 9.25964079 4.8125 12.3125 C1.72563568 14.42456506 0.1092087 14.54945145 -3.5625 13.9375 C-5.9375 12.3125 -5.9375 12.3125 -7.5625 9.9375 C-8.17225382 6.27897708 -8.00793026 4.63237121 -6 1.5 C-3.5625 -0.0625 -3.5625 -0.0625 0 0 Z " fill="#F1F4F4" transform="translate(332.5625,336.0625)"/>
<path d="M0 0 C6.52431458 -0.60162737 10.97164139 -0.24261751 16.37109375 3.640625 C19.32894909 6.10905104 20.80981635 7.70041175 21.375 11.5625 C21 14 21 14 19.875 15.8125 C17.06992828 17.58904542 15.24145792 17.54024299 12 17 C8.08635778 12.9514046 8.30106989 7.34658597 8 2 C5.36 1.67 2.72 1.34 0 1 C0 0.67 0 0.34 0 0 Z " fill="#EBEFEF" transform="translate(255,242)"/>
<path d="M0 0 C4.30169173 1.40272556 4.30169173 1.40272556 5.875 3.9375 C6.41568562 7.56781776 6.33879841 9.25964079 4.25 12.3125 C1.16313568 14.42456506 -0.4532913 14.54945145 -4.125 13.9375 C-7.21384321 11.82408096 -7.99608765 10.62503254 -8.6875 6.9375 C-8.125 3.9375 -8.125 3.9375 -6 1.5 C-3.125 -0.0625 -3.125 -0.0625 0 0 Z " fill="#F5F7F7" transform="translate(222.125,224.0625)"/>
<path d="M0 0 C3.63 0 7.26 0 11 0 C10.24976563 0.78761719 9.49953125 1.57523438 8.7265625 2.38671875 C5.37451178 6.40610867 3.98306881 10.89523405 2.375 15.8125 C1.81024888 17.53092064 1.23522569 19.24601023 0.6484375 20.95703125 C0.40270996 21.70960205 0.15698242 22.46217285 -0.09619141 23.23754883 C-1 25 -1 25 -4 26 C-2.53515884 21.02369562 -1.04183432 16.07904565 0.6875 11.1875 C1.74900766 8.02532455 2.51015135 5.36699893 2 2 C1.34 1.34 0.68 0.68 0 0 Z " fill="#E2E8E9" transform="translate(314,244)"/>
<path d="M0 0 C0.33 0 0.66 0 1 0 C0.41509121 6.14154225 -0.54066252 12.00679849 -2 18 C-0.68 18.66 0.64 19.32 2 20 C-2.29 20 -6.58 20 -11 20 C-9.35 18.68 -7.7 17.36 -6 16 C-4.64534151 13.66677545 -4.64534151 13.66677545 -3.8125 11.125 C-3.49410156 10.25359375 -3.17570312 9.3821875 -2.84765625 8.484375 C-2.42806641 7.25460938 -2.42806641 7.25460938 -2 6 C-1.5875 4.80375 -1.175 3.6075 -0.75 2.375 C-0.37875 1.199375 -0.37875 1.199375 0 0 Z " fill="#E3E9EA" transform="translate(93,154)"/>
<path d="M0 0 C2 3 2 3 1.5402832 5.40429688 C1.21374756 6.33306641 0.88721191 7.26183594 0.55078125 8.21875 C0.19693359 9.23324219 -0.15691406 10.24773437 -0.52148438 11.29296875 C-1.09866211 12.88044922 -1.09866211 12.88044922 -1.6875 14.5 C-2.23567383 16.08748047 -2.23567383 16.08748047 -2.79492188 17.70703125 C-5.84366776 26.29151429 -5.84366776 26.29151429 -9 29 C-7.6393319 22.24476394 -5.71290027 15.91424405 -3.375 9.4375 C-3.05015625 8.52419922 -2.7253125 7.61089844 -2.390625 6.66992188 C-1.59846371 4.44488059 -0.8015341 2.22167825 0 0 Z " fill="#D3DCDD" transform="translate(103,125)"/>
<path d="M0 0 C3.63 0 7.26 0 11 0 C9.37660195 1.70884005 7.70680947 3.37446717 6 5 C5.34 5 4.68 5 4 5 C4 4.01 4 3.02 4 2 C2.68 1.34 1.36 0.68 0 0 Z " fill="#EFF3F3" transform="translate(314,244)"/>
<path d="M0 0 C0.66 1.32 1.32 2.64 2 4 C2.7425 3.46375 3.485 2.9275 4.25 2.375 C5.1575 1.92125 6.065 1.4675 7 1 C9.3125 1.8125 9.3125 1.8125 11 3 C11 3.33 11 3.66 11 4 C9.88625 4.309375 8.7725 4.61875 7.625 4.9375 C4.2054845 5.82326483 4.2054845 5.82326483 2 7 C1.34 6.67 0.68 6.34 0 6 C0 4.02 0 2.04 0 0 Z " fill="#D2DCDD" transform="translate(363,355)"/>
<path d="M0 0 C-5.12583611 0.10251672 -9.94997778 0.03590199 -15 -1 C-15 -1.33 -15 -1.66 -15 -2 C-13.56359829 -2.19573608 -12.12580496 -2.38127816 -10.6875 -2.5625 C-9.88699219 -2.66691406 -9.08648437 -2.77132813 -8.26171875 -2.87890625 C-4.72797954 -3.06810472 -2.92379886 -1.94919924 0 0 Z " fill="#D2DCDC" transform="translate(116,398)"/>
<path d="M0 0 C0.66 0 1.32 0 2 0 C0.95125002 2.62187494 0.35068687 3.79371361 -2.125 5.25 C-2.74375 5.4975 -3.3625 5.745 -4 6 C-4 5.34 -4 4.68 -4 4 C-4.66 3.67 -5.32 3.34 -6 3 C-5.195625 2.690625 -4.39125 2.38125 -3.5625 2.0625 C-1.10919595 1.23664655 -1.10919595 1.23664655 0 0 Z " fill="#D3DDDD" transform="translate(315,392)"/>
<path d="M0 0 C0.33 0 0.66 0 1 0 C1.36923077 5.41538462 1.36923077 5.41538462 -0.5 8.375 C-0.995 8.91125 -1.49 9.4475 -2 10 C-3 8 -3 8 -2.44140625 6.0546875 C-2.15136719 5.33539063 -1.86132812 4.61609375 -1.5625 3.875 C-1.27503906 3.15054687 -0.98757813 2.42609375 -0.69140625 1.6796875 C-0.46324219 1.12539063 -0.23507812 0.57109375 0 0 Z " fill="#D1DBDC" transform="translate(302,290)"/>
<path d="M0 0 C0.33 0.99 0.66 1.98 1 3 C1.66 3.33 2.32 3.66 3 4 C2.34 5.65 1.68 7.3 1 9 C0.34 8.67 -0.32 8.34 -1 8 C-0.67 5.36 -0.34 2.72 0 0 Z " fill="#D4DEDE" transform="translate(317,246)"/>
</svg>
