<svg id="svg" version="1.1" xmlns="http://www.w3.org/2000/svg" xmlns:xlink="http://www.w3.org/1999/xlink" width="400" height="400" viewBox="0, 0, 400,400"><g id="svgg"><path id="path0" d="M53.135 21.074 C 85.783 27.911,128.485 44.338,158.105 61.454 C 183.802 76.303,224.832 104.213,224.117 106.359 C 223.923 106.943,222.907 107.193,214.258 108.782 C 203.193 110.815,196.059 112.207,196.181 112.308 C 196.240 112.358,205.166 114.544,216.016 117.167 C 240.195 123.011,239.643 122.849,241.655 124.702 C 244.172 127.020,244.143 126.932,251.771 155.078 C 253.605 161.846,255.217 167.734,255.353 168.164 C 255.541 168.756,255.776 168.377,256.325 166.602 C 257.564 162.596,261.209 149.617,262.303 145.313 C 264.313 137.409,264.101 137.585,267.393 141.113 C 268.646 142.456,271.279 145.225,273.245 147.266 C 277.783 151.977,285.159 160.056,287.695 163.092 C 288.770 164.378,289.743 165.518,289.858 165.625 C 289.973 165.732,291.203 167.201,292.592 168.887 C 293.981 170.574,296.039 173.035,297.165 174.356 C 321.154 202.486,345.724 241.397,358.991 272.266 C 372.038 302.622,382.833 339.857,384.528 360.352 C 384.617 361.426,384.622 358.350,384.539 353.516 C 384.410 346.017,383.746 334.721,383.012 327.539 C 382.902 326.465,382.712 324.531,382.590 323.242 C 378.970 285.164,364.659 243.702,342.208 206.250 C 334.339 193.123,320.016 172.662,311.173 161.914 C 300.098 148.453,288.947 135.808,281.291 128.029 C 277.172 123.843,275.740 122.151,276.052 121.839 C 276.431 121.460,287.127 118.517,305.847 113.643 C 309.170 112.778,311.927 112.031,311.974 111.984 C 312.022 111.937,306.227 110.597,299.097 109.007 C 268.258 102.131,268.795 102.358,266.635 95.249 C 264.577 88.471,257.299 61.779,256.672 58.705 C 256.311 56.940,255.933 55.412,255.830 55.310 C 255.625 55.105,252.722 66.643,248.238 85.475 C 246.637 92.204,245.225 97.873,245.101 98.073 C 244.683 98.750,244.185 98.447,239.257 94.516 C 220.802 79.793,202.385 68.320,177.539 56.069 C 158.796 46.826,144.387 40.834,128.906 35.843 C 109.522 29.594,89.919 24.781,76.172 22.895 C 75.420 22.792,72.432 22.352,69.531 21.918 C 65.019 21.243,50.447 19.876,48.494 19.945 C 48.141 19.957,50.229 20.465,53.135 21.074 M14.063 293.689 C 14.063 328.890,13.948 359.564,13.808 361.853 L 13.553 366.016 58.730 366.016 L 103.906 366.016 103.906 355.469 L 103.906 344.922 70.113 344.922 L 36.321 344.922 36.422 326.270 L 36.523 307.617 65.137 307.768 L 93.750 307.919 93.750 297.319 L 93.750 286.719 65.039 286.719 L 36.328 286.719 36.328 268.641 L 36.328 250.564 69.531 250.711 L 102.734 250.857 102.734 240.272 L 102.734 229.688 58.398 229.688 L 14.063 229.688 14.063 293.689 M123.047 297.852 L 123.047 366.016 134.180 366.016 L 145.313 366.016 145.313 339.648 L 145.313 313.281 159.766 313.281 C 167.715 313.281,174.351 313.237,174.512 313.184 C 174.805 313.086,177.581 318.151,186.017 334.180 C 189.986 341.721,196.804 354.558,201.417 363.177 L 202.930 366.002 216.123 366.009 L 229.317 366.016 228.669 364.746 C 228.312 364.048,223.452 355.127,217.868 344.922 C 212.285 334.717,205.802 322.869,203.462 318.593 C 201.122 314.317,199.254 310.792,199.311 310.760 C 199.368 310.728,200.469 310.381,201.758 309.990 C 236.425 299.458,238.473 248.378,204.812 233.797 C 195.626 229.818,194.048 229.688,155.037 229.688 L 123.047 229.688 123.047 297.852 M291.020 230.566 C 290.817 231.050,284.333 248.320,276.612 268.945 C 268.891 289.570,260.255 312.598,257.420 320.117 C 254.585 327.637,249.660 340.732,246.475 349.219 C 243.290 357.705,240.565 364.956,240.418 365.332 C 240.167 365.974,240.876 366.016,252.041 366.016 L 263.931 366.016 264.371 364.551 C 264.613 363.745,267.235 356.187,270.198 347.755 L 275.586 332.425 304.366 332.423 L 333.147 332.422 333.893 334.473 C 334.304 335.601,336.909 343.156,339.683 351.263 L 344.727 366.003 356.698 366.009 L 368.669 366.016 367.360 362.598 C 366.641 360.718,363.565 352.500,360.525 344.336 C 355.444 330.691,345.213 303.699,342.830 297.656 C 342.280 296.260,338.666 286.768,334.800 276.563 C 330.934 266.357,326.650 255.107,325.281 251.563 C 323.912 248.018,321.487 241.649,319.892 237.411 L 316.992 229.704 304.191 229.696 L 291.390 229.688 291.020 230.566 M188.649 250.859 C 209.193 254.365,214.254 281.171,196.062 290.125 C 190.525 292.850,189.339 292.963,166.113 292.966 L 145.313 292.969 145.313 271.467 L 145.313 249.965 165.723 250.198 C 177.606 250.333,187.184 250.609,188.649 250.859 M312.029 275.000 C 315.906 285.635,320.499 298.163,322.235 302.840 C 323.970 307.518,325.391 311.429,325.391 311.532 C 325.391 311.635,315.968 311.719,304.450 311.719 C 284.667 311.719,283.525 311.681,283.775 311.035 C 286.231 304.688,296.815 274.881,299.939 265.512 C 303.905 253.622,304.099 253.150,304.529 254.380 C 304.776 255.086,308.151 264.365,312.029 275.000 " stroke="none" fill="#fbfbfb" fill-rule="evenodd"></path><path id="path1" d="M0.000 200.000 L 0.000 400.000 200.000 400.000 L 400.000 400.000 400.000 200.000 L 400.000 0.000 200.000 0.000 L 0.000 0.000 0.000 200.000 M58.789 20.542 C 74.468 21.844,97.909 26.393,116.016 31.648 C 159.586 44.294,206.050 67.879,238.672 93.908 C 241.787 96.394,244.461 98.430,244.613 98.432 C 245.029 98.440,246.731 91.799,250.416 75.781 C 252.689 65.907,255.540 55.078,255.867 55.078 C 256.022 55.078,256.265 55.948,256.406 57.012 C 256.628 58.683,261.507 76.832,265.850 92.138 C 268.876 102.803,265.927 101.474,306.736 110.570 C 309.904 111.276,312.430 111.919,312.350 111.999 C 312.209 112.140,308.105 113.230,286.734 118.799 C 274.326 122.033,274.849 121.649,278.361 124.939 C 287.220 133.239,309.932 159.422,319.414 172.266 C 350.303 214.107,368.816 252.614,377.912 293.945 C 378.858 298.242,379.735 302.461,379.861 303.320 C 379.988 304.180,380.258 305.850,380.462 307.031 C 381.709 314.264,382.083 317.003,382.781 324.023 C 384.369 339.991,384.994 351.685,384.743 360.742 L 384.656 363.867 384.343 359.961 C 382.521 337.248,369.398 294.479,354.533 262.810 C 346.940 246.633,335.138 226.015,325.847 212.695 C 314.358 196.226,303.521 181.782,297.268 174.609 C 296.238 173.428,293.399 170.073,290.959 167.156 C 282.873 157.484,265.364 138.672,264.449 138.672 C 264.319 138.672,263.292 142.144,262.166 146.387 C 258.751 159.257,255.745 169.232,255.448 168.681 C 255.295 168.397,253.997 163.770,252.563 158.398 C 245.813 133.116,244.111 127.549,242.555 125.672 C 240.780 123.532,239.318 122.937,230.851 120.909 C 224.935 119.492,202.899 114.140,196.875 112.656 L 195.898 112.416 196.793 112.074 C 197.285 111.886,203.428 110.664,210.445 109.358 C 226.390 106.390,225.441 106.944,220.898 103.246 C 196.808 83.635,151.458 56.324,122.070 43.730 C 96.014 32.564,74.834 25.804,48.242 20.167 L 45.508 19.587 48.438 19.756 C 50.049 19.849,54.707 20.203,58.789 20.542 M102.734 240.281 L 102.734 250.874 69.727 250.720 L 36.719 250.567 36.719 268.643 L 36.719 286.719 65.332 286.719 L 93.945 286.719 93.945 297.266 L 93.945 307.813 65.332 307.813 L 36.719 307.813 36.719 326.367 L 36.719 344.922 70.313 344.922 L 103.906 344.922 103.906 355.664 L 103.906 366.406 58.789 366.406 L 13.672 366.406 13.672 298.047 L 13.672 229.688 58.203 229.688 L 102.734 229.688 102.734 240.281 M192.773 230.092 C 235.776 236.213,242.850 295.744,202.266 309.970 L 199.260 311.024 199.973 312.055 C 200.365 312.622,204.026 319.238,208.107 326.758 C 220.818 350.177,228.973 365.024,229.337 365.410 C 229.530 365.614,229.688 365.924,229.688 366.099 C 229.688 366.274,223.671 366.370,216.317 366.314 L 202.947 366.211 201.452 363.477 C 199.222 359.400,189.680 341.448,183.492 329.688 C 180.496 323.994,177.316 317.976,176.425 316.314 L 174.805 313.292 160.053 313.287 L 145.302 313.281 145.318 339.746 L 145.334 366.211 134.191 366.315 L 123.047 366.418 123.047 298.053 L 123.047 229.688 156.543 229.695 C 176.659 229.700,191.131 229.858,192.773 230.092 M318.089 232.324 C 320.035 237.497,327.307 256.552,329.680 262.695 C 331.008 266.133,334.117 274.307,336.590 280.859 C 339.062 287.412,342.845 297.344,344.997 302.930 C 347.148 308.516,350.367 316.953,352.151 321.680 C 353.935 326.406,356.923 334.316,358.790 339.258 C 360.657 344.199,363.592 352.097,365.312 356.809 C 367.031 361.520,368.527 365.607,368.636 365.891 C 368.797 366.311,366.590 366.406,356.709 366.406 L 344.584 366.406 344.344 365.527 C 344.212 365.044,341.616 357.396,338.574 348.533 L 333.044 332.417 304.359 332.517 L 275.673 332.617 271.037 345.703 C 268.487 352.900,265.838 360.503,265.149 362.598 L 263.896 366.406 252.065 366.406 C 242.860 366.406,240.235 366.298,240.235 365.918 C 240.236 365.649,245.829 350.576,252.665 332.422 C 259.502 314.268,270.971 283.726,278.153 264.552 L 291.211 229.690 304.154 229.689 L 317.097 229.688 318.089 232.324 M145.313 271.680 L 145.313 293.011 166.895 292.874 C 190.982 292.721,191.039 292.714,196.647 289.726 C 211.000 282.076,210.427 260.652,195.674 253.365 C 190.013 250.569,190.828 250.650,166.895 250.491 L 145.313 250.348 145.313 271.680 M299.926 265.905 C 297.648 272.734,293.121 285.680,289.865 294.674 C 286.609 303.669,284.008 311.091,284.085 311.168 C 284.621 311.704,325.380 311.475,325.161 310.938 C 324.401 309.070,310.657 271.692,305.945 258.679 L 304.067 253.490 299.926 265.905 " stroke="none" fill="#a30413" fill-rule="evenodd"></path><path id="path2" d="M279.688 126.294 C 279.688 126.361,280.259 126.933,280.957 127.564 L 282.227 128.711 281.079 127.441 C 280.010 126.258,279.688 125.992,279.688 126.294 M149.532 250.292 C 151.746 250.361,155.262 250.361,157.345 250.291 C 159.428 250.221,157.617 250.164,153.320 250.164 C 149.023 250.164,147.319 250.222,149.532 250.292 M36.419 268.359 C 36.419 269.111,36.499 269.419,36.597 269.043 C 36.696 268.667,36.696 268.052,36.597 267.676 C 36.499 267.300,36.419 267.607,36.419 268.359 M229.043 271.875 C 229.043 273.701,229.110 274.448,229.192 273.535 C 229.275 272.622,229.275 271.128,229.192 270.215 C 229.110 269.302,229.043 270.049,229.043 271.875 M294.043 311.621 C 299.683 311.682,308.911 311.682,314.551 311.621 C 320.190 311.560,315.576 311.510,304.297 311.510 C 293.018 311.510,288.403 311.560,294.043 311.621 M384.083 341.211 C 384.087 342.070,384.167 342.376,384.261 341.890 C 384.354 341.404,384.351 340.701,384.253 340.327 C 384.155 339.954,384.079 340.352,384.083 341.211 M36.621 366.309 C 48.921 366.366,69.048 366.366,81.348 366.309 C 93.647 366.251,83.584 366.204,58.984 366.204 C 34.385 366.204,24.321 366.251,36.621 366.309 M128.418 366.308 C 131.479 366.374,136.489 366.374,139.551 366.308 C 142.612 366.242,140.107 366.188,133.984 366.188 C 127.861 366.188,125.356 366.242,128.418 366.308 M209.473 366.308 C 213.071 366.372,218.960 366.372,222.559 366.308 C 226.157 366.243,223.213 366.191,216.016 366.191 C 208.818 366.191,205.874 366.243,209.473 366.308 M246.191 366.308 C 249.360 366.373,254.546 366.373,257.715 366.308 C 260.884 366.242,258.291 366.188,251.953 366.188 C 245.615 366.188,243.022 366.242,246.191 366.308 M350.293 366.308 C 353.569 366.373,358.931 366.373,362.207 366.308 C 365.483 366.242,362.803 366.189,356.250 366.189 C 349.697 366.189,347.017 366.242,350.293 366.308 " stroke="none" fill="#c35a66" fill-rule="evenodd"></path><path id="path3" d="M13.797 233.203 C 13.797 234.600,13.868 235.171,13.954 234.473 C 14.041 233.774,14.041 232.632,13.954 231.934 C 13.868 231.235,13.797 231.807,13.797 233.203 M13.862 297.656 C 13.862 331.709,13.908 345.640,13.965 328.613 C 14.021 311.587,14.021 283.726,13.965 266.699 C 13.908 249.673,13.862 263.604,13.862 297.656 M36.459 253.906 C 36.459 255.518,36.528 256.177,36.613 255.371 C 36.697 254.565,36.697 253.247,36.613 252.441 C 36.528 251.636,36.459 252.295,36.459 253.906 M36.435 260.938 C 36.435 261.904,36.511 262.300,36.604 261.816 C 36.697 261.333,36.697 260.542,36.604 260.059 C 36.511 259.575,36.435 259.971,36.435 260.938 M36.456 277.148 C 36.458 278.652,36.529 279.220,36.613 278.409 C 36.698 277.599,36.696 276.368,36.610 275.675 C 36.524 274.981,36.455 275.645,36.456 277.148 M36.419 282.422 C 36.419 283.174,36.499 283.481,36.597 283.105 C 36.696 282.729,36.696 282.114,36.597 281.738 C 36.499 281.362,36.419 281.670,36.419 282.422 M36.467 315.820 C 36.466 317.754,36.532 318.594,36.614 317.688 C 36.695 316.781,36.696 315.199,36.616 314.172 C 36.535 313.145,36.468 313.887,36.467 315.820 M36.471 325.195 C 36.472 327.344,36.537 328.173,36.617 327.038 C 36.696 325.903,36.695 324.145,36.615 323.131 C 36.535 322.118,36.470 323.047,36.471 325.195 M36.490 337.500 C 36.490 341.475,36.548 343.101,36.619 341.113 C 36.690 339.126,36.690 335.874,36.619 333.887 C 36.548 331.899,36.490 333.525,36.490 337.500 " stroke="none" fill="#d4737c" fill-rule="evenodd"></path><path id="path4" d="M57.129 20.582 C 57.505 20.680,58.120 20.680,58.496 20.582 C 58.872 20.484,58.564 20.403,57.813 20.403 C 57.061 20.403,56.753 20.484,57.129 20.582 M267.578 141.602 C 268.307 142.354,268.991 142.969,269.099 142.969 C 269.206 142.969,268.698 142.354,267.969 141.602 C 267.240 140.850,266.556 140.234,266.448 140.234 C 266.341 140.234,266.849 140.850,267.578 141.602 M39.534 307.711 C 40.974 307.786,43.435 307.787,45.002 307.712 C 46.569 307.638,45.391 307.577,42.383 307.576 C 39.375 307.575,38.093 307.636,39.534 307.711 " stroke="none" fill="#d88484" fill-rule="evenodd"></path></g></svg>