<?xml version="1.0" encoding="UTF-8"?>
<svg version="1.1" xmlns="http://www.w3.org/2000/svg" width="232" height="90">
<path d="M0 0 C0.99 0 1.98 0 3 0 C3.99 2.31 4.98 4.62 6 7 C6.66 4.69 7.32 2.38 8 0 C9.32 0 10.64 0 12 0 C12.99 2.31 13.98 4.62 15 7 C15.66 4.69 16.32 2.38 17 0 C17.99 0 18.98 0 20 0 C19.43179252 5.45479185 18.05362055 9.91059256 16 15 C14.68 15 13.36 15 12 15 C11.67 12.36 11.34 9.72 11 7 C10.34 7 9.68 7 9 7 C8.67 9.64 8.34 12.28 8 15 C6.35 14.67 4.7 14.34 3 14 C2.49307308 12.4188708 1.99473557 10.83498617 1.5 9.25 C1.2215625 8.36828125 0.943125 7.4865625 0.65625 6.578125 C0 4 0 4 0 0 Z " fill="#6A7387" transform="translate(182,13)"/>
<path d="M0 0 C3.12522772 -0.05378021 6.2495371 -0.09356575 9.375 -0.125 C10.26445313 -0.14175781 11.15390625 -0.15851562 12.0703125 -0.17578125 C12.92109375 -0.18222656 13.771875 -0.18867188 14.6484375 -0.1953125 C15.82672119 -0.21102295 15.82672119 -0.21102295 17.02880859 -0.22705078 C19 0 19 0 21 2 C21.1953125 5.0390625 21.1953125 5.0390625 21.125 8.625 C21.10695313 9.81351563 21.08890625 11.00203125 21.0703125 12.2265625 C21.04710938 13.14179688 21.02390625 14.05703125 21 15 C20.01 15 19.02 15 18 15 C17.67 11.37 17.34 7.74 17 4 C15.68 4 14.36 4 13 4 C12.67 7.63 12.34 11.26 12 15 C11.01 15 10.02 15 9 15 C8.67 11.37 8.34 7.74 8 4 C6.68 4 5.36 4 4 4 C3.67 7.63 3.34 11.26 3 15 C2.01 15 1.02 15 0 15 C0 10.05 0 5.1 0 0 Z " fill="#6A7387" transform="translate(39,13)"/>
<path d="M0 0 C1.21236328 0.02707031 1.21236328 0.02707031 2.44921875 0.0546875 C3.37154297 0.08949219 3.37154297 0.08949219 4.3125 0.125 C4.39336376 3.06304996 4.4529283 5.99888075 4.5 8.9375 C4.52513672 9.77087891 4.55027344 10.60425781 4.57617188 11.46289062 C4.59067383 12.66655273 4.59067383 12.66655273 4.60546875 13.89453125 C4.62903442 15.00211792 4.62903442 15.00211792 4.65307617 16.13208008 C4.21695471 18.68409405 3.32936382 19.55360853 1.3125 21.125 C-1.41257798 21.51578556 -3.91871956 21.26116953 -6.6875 21.125 C-6.6875 20.135 -6.6875 19.145 -6.6875 18.125 C-4.3775 18.125 -2.0675 18.125 0.3125 18.125 C0.3125 17.135 0.3125 16.145 0.3125 15.125 C-1.0796875 15.24875 -1.0796875 15.24875 -2.5 15.375 C-5.6875 15.125 -5.6875 15.125 -7.625 13.6875 C-9.21303026 9.85754467 -8.89242085 6.07531012 -7.6875 2.125 C-4.48369983 -0.01086678 -3.66810033 -0.10632175 0 0 Z M-3.6875 3.125 C-6.02141203 5.90614056 -6.02141203 5.90614056 -5.3125 8.8125 C-5.10625 9.575625 -4.9 10.33875 -4.6875 11.125 C-3.03135343 11.50718767 -1.36292976 11.83895102 0.3125 12.125 C1.72827477 10.94075674 1.72827477 10.94075674 1.375 7.5625 C1.354375 6.428125 1.33375 5.29375 1.3125 4.125 C-0.3375 3.795 -1.9875 3.465 -3.6875 3.125 Z " fill="#6A7387" transform="translate(59.6875,43.875)"/>
<path d="M0 0 C1.32 0 2.64 0 4 0 C4 1.98 4 3.96 4 6 C5.11375 5.95875 6.2275 5.9175 7.375 5.875 C11 6 11 6 13 8 C13.1953125 11.0390625 13.1953125 11.0390625 13.125 14.625 C13.10695313 15.81351563 13.08890625 17.00203125 13.0703125 18.2265625 C13.04710938 19.14179687 13.02390625 20.05703125 13 21 C12.01 21 11.02 21 10 21 C9.67 17.37 9.34 13.74 9 10 C7.68 10 6.36 10 5 10 C4.67 13.63 4.34 17.26 4 21 C2.68 21 1.36 21 0 21 C0 14.07 0 7.14 0 0 Z " fill="#6A7387" transform="translate(66,38)"/>
<path d="M0 0 C3.3 0 6.6 0 10 0 C12.06520632 3.09780948 12.29477024 3.9540481 12.3125 7.5 C12.32925781 8.2734375 12.34601563 9.046875 12.36328125 9.84375 C11.91110083 12.5276596 11.17793994 13.40453237 9 15 C5.8125 15.1875 5.8125 15.1875 3 15 C3 16.98 3 18.96 3 21 C2.01 21 1.02 21 0 21 C0 14.07 0 7.14 0 0 Z M4 3 C2.79438816 3.98267859 2.79438816 3.98267859 2.90234375 5.84765625 C2.91394531 6.57855469 2.92554687 7.30945313 2.9375 8.0625 C2.958125 9.361875 2.97875 10.66125 3 12 C6.29075996 11.62095792 6.29075996 11.62095792 9 10 C9.04080783 8.00041636 9.04254356 5.99954746 9 4 C7.34385343 3.61781233 5.67542976 3.28604898 4 3 Z " fill="#6A7387" transform="translate(63,13)"/>
<path d="M0 0 C2.7770555 0.09593464 3.8017743 0.19328209 6.125 1.8125 C7.53383119 5.66330526 7.25642819 9.46072911 6.0625 13.375 C2.35834707 15.84443529 0.44105495 15.84413089 -3.9375 15.375 C-5.9375 13.9375 -5.9375 13.9375 -6.9375 11.375 C-6.96483937 8.29658661 -6.70383466 5.35967183 -5.9375 2.375 C-3.9375 0.375 -3.9375 0.375 0 0 Z M-1.9375 3.375 C-4.27141203 6.15614056 -4.27141203 6.15614056 -3.5625 9.0625 C-3.35625 9.825625 -3.15 10.58875 -2.9375 11.375 C-1.2875 11.705 0.3625 12.035 2.0625 12.375 C3.25845537 9.5378485 3.25845537 9.5378485 4.0625 6.375 C3.4025 5.385 2.7425 4.395 2.0625 3.375 C0.7425 3.375 -0.5775 3.375 -1.9375 3.375 Z " fill="#6A7387" transform="translate(126.9375,12.625)"/>
<path d="M0 0 C1.423125 0.061875 2.84625 0.12375 4.3125 0.1875 C4.6425 5.1375 4.9725 10.0875 5.3125 15.1875 C3.724375 15.249375 2.13625 15.31125 0.5 15.375 C-0.39332031 15.40980469 -1.28664062 15.44460937 -2.20703125 15.48046875 C-4.6875 15.1875 -4.6875 15.1875 -6.48828125 13.95703125 C-7.99867943 11.72833296 -8.08927304 10.36480443 -8.0625 7.6875 C-8.07023438 6.9140625 -8.07796875 6.140625 -8.0859375 5.34375 C-7.20579237 0.58061166 -4.46917575 -0.19431199 0 0 Z M-3.6875 3.1875 C-4.72964691 7.80257774 -4.72964691 7.80257774 -3.6875 12.1875 C-2.0375 11.8575 -0.3875 11.5275 1.3125 11.1875 C1.3125 8.8775 1.3125 6.5675 1.3125 4.1875 C-0.3375 3.8575 -1.9875 3.5275 -3.6875 3.1875 Z " fill="#6A7387" transform="translate(175.6875,12.8125)"/>
<path d="M0 0 C0 0.99 0 1.98 0 3 C-1.3921875 2.9071875 -1.3921875 2.9071875 -2.8125 2.8125 C-5.88399522 2.77036523 -5.88399522 2.77036523 -7.875 4 C-9.75321874 7.33905554 -9.30079454 10.20998874 -9 14 C-7.04366025 16.41121859 -7.04366025 16.41121859 -3.375 16.125 C-2.26125 16.08375 -1.1475 16.0425 0 16 C-0.33 17.32 -0.66 18.64 -1 20 C-8.21804511 20.48120301 -8.21804511 20.48120301 -11.4375 18.5 C-13.56474532 15.09640749 -14.1913301 11.95170253 -14 8 C-13.18600737 4.57722772 -11.98001505 1.8400129 -9.25 -0.5 C-6.00918611 -1.22018086 -3.22791336 -0.62075257 0 0 Z " fill="#6A7387" transform="translate(23,8)"/>
<path d="M0 0 C1.9375 1 1.9375 1 3 3 C3.75912409 9.83211679 3.75912409 9.83211679 1.375 13.5 C-1.66673285 15.42109443 -3.46049143 15.45185216 -7 15 C-10 13 -10 13 -10.8125 9.6875 C-10.99889897 6.02165353 -10.77012638 4.16759458 -9 1 C-5.95016004 -0.52491998 -3.3576631 -0.23562548 0 0 Z M-7 4 C-7.04092937 6.33297433 -7.04241723 8.66705225 -7 11 C-4.525 11.495 -4.525 11.495 -2 12 C0.36692966 9.15173402 0.36692966 9.15173402 -0.375 5.8125 C-0.58125 4.884375 -0.7875 3.95625 -1 3 C-4.28930404 2.63314303 -4.28930404 2.63314303 -7 4 Z " fill="#6A7387" transform="translate(34,13)"/>
<path d="M0 0 C2.1519437 3.22791555 2.20086443 4.28400809 2 8 C-0.97 8 -3.94 8 -7 8 C-6.67 8.99 -6.34 9.98 -6 11 C-3.69 11 -1.38 11 1 11 C1.33 11.99 1.66 12.98 2 14 C-1.04983996 15.52491998 -3.6423369 15.23562548 -7 15 C-9.69249841 13.38450095 -9.95525093 12.15834288 -10.8125 9.125 C-11.01519462 5.74675636 -10.60361016 3.95401872 -9 1 C-5.95699684 -0.52150158 -3.345915 -0.23899393 0 0 Z M-6 3 C-6.33 3.99 -6.66 4.98 -7 6 C-5.02 6 -3.04 6 -1 6 C-1.33 5.01 -1.66 4.02 -2 3 C-3.32 3 -4.64 3 -6 3 Z " fill="#6A7387" transform="translate(87,13)"/>
<path d="M0 0 C1.60875 -0.04125 3.2175 -0.0825 4.875 -0.125 C5.77992188 -0.14820313 6.68484375 -0.17140625 7.6171875 -0.1953125 C10 0 10 0 12 2 C12.1953125 5.0390625 12.1953125 5.0390625 12.125 8.625 C12.10695312 9.81351563 12.08890625 11.00203125 12.0703125 12.2265625 C12.04710937 13.14179688 12.02390625 14.05703125 12 15 C11.01 15 10.02 15 9 15 C8.67 11.37 8.34 7.74 8 4 C6.68 4 5.36 4 4 4 C3.67 7.63 3.34 11.26 3 15 C2.01 15 1.02 15 0 15 C0 10.05 0 5.1 0 0 Z " fill="#6A7387" transform="translate(136,13)"/>
<path d="M0 0 C1.60875 -0.04125 3.2175 -0.0825 4.875 -0.125 C5.77992187 -0.14820313 6.68484375 -0.17140625 7.6171875 -0.1953125 C10 0 10 0 12 2 C12.1953125 5.0390625 12.1953125 5.0390625 12.125 8.625 C12.10695313 9.81351563 12.08890625 11.00203125 12.0703125 12.2265625 C12.04710937 13.14179687 12.02390625 14.05703125 12 15 C11.01 15 10.02 15 9 15 C8.67 11.37 8.34 7.74 8 4 C6.68 4 5.36 4 4 4 C3.67 7.63 3.34 11.26 3 15 C2.01 15 1.02 15 0 15 C0 10.05 0 5.1 0 0 Z " fill="#6A7387" transform="translate(20,44)"/>
<path d="M0 0 C1.670625 0.061875 1.670625 0.061875 3.375 0.125 C3.705 1.445 4.035 2.765 4.375 4.125 C2.395 4.125 0.415 4.125 -1.625 4.125 C-1.026875 4.393125 -0.42875 4.66125 0.1875 4.9375 C2.45073361 6.16611253 3.89040577 7.01531346 5.375 9.125 C4.95394737 13.54605263 4.95394737 13.54605263 3.375 15.125 C0.70441149 15.26615161 -1.94932238 15.16747107 -4.625 15.125 C-4.955 13.805 -5.285 12.485 -5.625 11.125 C-3.315 11.125 -1.005 11.125 1.375 11.125 C-2.09 9.145 -2.09 9.145 -5.625 7.125 C-5.75 4.75 -5.75 4.75 -5.625 2.125 C-3.625 0.125 -3.625 0.125 0 0 Z " fill="#6A7387" transform="translate(39.625,43.875)"/>
<path d="M0 0 C0.99 0 1.98 0 3 0 C3 1.32 3 2.64 3 4 C4.32 4 5.64 4 7 4 C7 4.99 7 5.98 7 7 C5.68 7 4.36 7 3 7 C3.24631557 11.05085679 3.24631557 11.05085679 4 15 C5.92064793 16.5899433 5.92064793 16.5899433 8 17 C8 17.66 8 18.32 8 19 C5.69 19 3.38 19 1 19 C-0.26237731 16.47524538 -0.09856404 14.68799534 -0.0625 11.875 C-0.05347656 10.96492188 -0.04445313 10.05484375 -0.03515625 9.1171875 C-0.02355469 8.41851562 -0.01195313 7.71984375 0 7 C-0.66 7 -1.32 7 -2 7 C-2 6.01 -2 5.02 -2 4 C-1.34 4 -0.68 4 0 4 C0 2.68 0 1.36 0 0 Z " fill="#6A7387" transform="translate(82,40)"/>
<path d="M0 0 C0.99 0 1.98 0 3 0 C3 5.61 3 11.22 3 17 C5.64 17 8.28 17 11 17 C11 17.99 11 18.98 11 20 C7.37 20 3.74 20 0 20 C0 13.4 0 6.8 0 0 Z " fill="#6A7387" transform="translate(157,8)"/>
<path d="M0 0 C2.64 0 5.28 0 8 0 C8 0.66 8 1.32 8 2 C7.01 2 6.02 2 5 2 C5 7.28 5 12.56 5 18 C5.99 18 6.98 18 8 18 C8 18.66 8 19.32 8 20 C5.36 20 2.72 20 0 20 C0 19.34 0 18.68 0 18 C0.66 18 1.32 18 2 18 C2 12.72 2 7.44 2 2 C1.34 2 0.68 2 0 2 C0 1.34 0 0.68 0 0 Z " fill="#6A7387" transform="translate(10,39)"/>
<path d="M0 0 C0.99 0 1.98 0 3 0 C3 1.32 3 2.64 3 4 C4.32 4 5.64 4 7 4 C7 4.66 7 5.32 7 6 C5.68 6 4.36 6 3 6 C3 9.3 3 12.6 3 16 C4.32 16 5.64 16 7 16 C7 16.99 7 17.98 7 19 C5.00045254 19.04254356 2.99958364 19.04080783 1 19 C0 18 0 18 -0.09765625 15.27734375 C-0.08605469 14.17519531 -0.07445313 13.07304687 -0.0625 11.9375 C-0.05347656 10.83277344 -0.04445313 9.72804688 -0.03515625 8.58984375 C-0.02355469 7.73519531 -0.01195313 6.88054688 0 6 C-0.66 6 -1.32 6 -2 6 C-2 5.34 -2 4.68 -2 4 C-1.34 4 -0.68 4 0 4 C0 2.68 0 1.36 0 0 Z " fill="#6A7387" transform="translate(107,9)"/>
<path d="M0 0 C0.99 0 1.98 0 3 0 C3 1.32 3 2.64 3 4 C4.32 4 5.64 4 7 4 C7 4.66 7 5.32 7 6 C5.68 6 4.36 6 3 6 C3 9.3 3 12.6 3 16 C4.32 16 5.64 16 7 16 C7 16.99 7 17.98 7 19 C5.00045254 19.04254356 2.99958364 19.04080783 1 19 C0 18 0 18 -0.09765625 15.27734375 C-0.08605469 14.17519531 -0.07445313 13.07304687 -0.0625 11.9375 C-0.05347656 10.83277344 -0.04445313 9.72804688 -0.03515625 8.58984375 C-0.02355469 7.73519531 -0.01195313 6.88054688 0 6 C-0.66 6 -1.32 6 -2 6 C-2 5.34 -2 4.68 -2 4 C-1.34 4 -0.68 4 0 4 C0 2.68 0 1.36 0 0 Z " fill="#6A7387" transform="translate(92,9)"/>
<path d="M0 0 C1.32 0 2.64 0 4 0 C4 4.95 4 9.9 4 15 C2.68 15 1.36 15 0 15 C0 10.05 0 5.1 0 0 Z " fill="#6A7387" transform="translate(46,44)"/>
<path d="M0 0 C1.32 0 2.64 0 4 0 C4 4.95 4 9.9 4 15 C2.68 15 1.36 15 0 15 C0 10.05 0 5.1 0 0 Z " fill="#6A7387" transform="translate(100,13)"/>
<path d="M0 0 C0.99 0 1.98 0 3 0 C3 4.95 3 9.9 3 15 C2.01 15 1.02 15 0 15 C0 10.05 0 5.1 0 0 Z " fill="#6A7387" transform="translate(115,13)"/>
<path d="M0 0 C1.32 0 2.64 0 4 0 C4 1.32 4 2.64 4 4 C2.68 4 1.36 4 0 4 C0 2.68 0 1.36 0 0 Z " fill="#6A7387" transform="translate(46,38)"/>
<path d="M0 0 C1.32 0 2.64 0 4 0 C3.67 1.32 3.34 2.64 3 4 C2.01 4 1.02 4 0 4 C0 2.68 0 1.36 0 0 Z " fill="#6A7387" transform="translate(115,7)"/>
<path d="M0 0 C1.32 0 2.64 0 4 0 C3.67 1.32 3.34 2.64 3 4 C2.01 3.67 1.02 3.34 0 3 C0 2.01 0 1.02 0 0 Z " fill="#6A7387" transform="translate(100,7)"/>
</svg>
