<?xml version="1.0" encoding="UTF-8"?>
<svg version="1.1" xmlns="http://www.w3.org/2000/svg" width="820" height="820">
<path d="M0 0 C-1.33703176 3.18772543 -3.22461618 5.50366148 -5.52832031 8.05786133 C-20.69371525 24.92318879 -35.27476013 49.17461804 -34.21875 72.71484375 C-34.1465625 73.46894531 -34.074375 74.22304687 -34 75 C-33.9071875 75.97066406 -33.814375 76.94132812 -33.71875 77.94140625 C-30.10555952 106.81218788 -10.37608526 125.6864631 9.1875 145.3125 C9.89740082 146.02641907 9.89740082 146.02641907 10.62164307 146.75476074 C16.23822777 152.3954134 21.94699835 157.83113334 28 163 C28.33 163.33 28.66 163.66 29 164 C29.21914063 162.741875 29.43828125 161.48375 29.6640625 160.1875 C34.40628905 134.11549638 44.69854296 109.96191802 66.5859375 93.66796875 C67.78089844 92.84232422 67.78089844 92.84232422 69 92 C70.16402344 91.18982422 70.16402344 91.18982422 71.3515625 90.36328125 C88.25921484 79.4311347 108.54167685 76.75309678 128.06420898 80.52368164 C141.55271788 83.47030258 152.27269018 91.0348556 159.9375 102.5 C167.18759645 114.68016204 168.83729832 128.75097442 166.3515625 142.6171875 C162.24626957 157.24887255 153.56078399 167.6629675 140.78125 175.4921875 C128.55522591 182.12034101 114.07046713 182.83545272 100.80859375 179.03125 C90.02117394 175.0703615 80.88454598 167.68437532 76 157.1875 C71.61689251 146.64064761 70.98000911 133.22022881 74.9375 122.4375 C75.58847192 120.94189784 76.26700541 119.45715792 77 118 C77.33 117.34 77.66 116.68 78 116 C77.13375 116.556875 76.2675 117.11375 75.375 117.6875 C74.88773437 118.00074219 74.40046875 118.31398438 73.8984375 118.63671875 C68.6440467 122.40993354 64.86137496 126.04143441 61.4375 131.5625 C61.05327881 132.17311279 60.66905762 132.78372559 60.27319336 133.4128418 C55.11960774 141.81204354 51.87409718 150.35530308 50 160 C49.83653076 160.80671143 49.67306152 161.61342285 49.50463867 162.44458008 C48.14669499 170.21776744 47.3765558 178.06616472 51.92480469 184.88623047 C56.89812425 190.6460146 62.56484366 195.5470758 68.31225586 200.51049805 C92.04386383 222.491714 108.47657639 255.1444333 110.1262207 287.47363281 C111.07962008 319.08411898 103.8764897 347.54032292 81.87109375 371.03222656 C81.25363281 371.6815918 80.63617187 372.33095703 80 373 C79.28457031 373.75249023 78.56914063 374.50498047 77.83203125 375.28027344 C68.64125767 384.85976902 59.32102054 393.92667462 48.61767578 401.796875 C46.98089563 403.01420863 45.37675821 404.26530982 43.77734375 405.53125 C37.66167828 410.36004268 31.38930545 414.82550089 24.87841797 419.10522461 C9.73220405 429.07269846 -4.69845699 439.64542114 -18 452 C-18.98226562 452.88365234 -18.98226562 452.88365234 -19.984375 453.78515625 C-33.82650421 466.79790168 -44.29380345 483.94289119 -50 502 C-53.38851813 498.89259212 -55.7438761 495.45336921 -58.125 491.5625 C-74.93215477 464.87577058 -97.12395667 442.11050117 -128.62695312 434.50366211 C-138.17274565 432.47763639 -147.50082186 431.6387647 -157.25 431.6875 C-158.4258667 431.69241455 -159.6017334 431.6973291 -160.81323242 431.70239258 C-183.67518003 432.00830624 -204.20562729 438.26191268 -222 453 C-222.59296875 453.43570312 -223.1859375 453.87140625 -223.796875 454.3203125 C-237.06372455 464.48344954 -245.16117815 483.17298271 -247.68652344 499.2421875 C-249.53665818 515.51876233 -249.28483145 532.40810597 -244 548 C-243.78569336 548.6403418 -243.57138672 549.28068359 -243.35058594 549.94042969 C-238.54202681 563.974143 -230.79638812 575.91139669 -221 587 C-220.41089844 587.68449219 -219.82179688 588.36898437 -219.21484375 589.07421875 C-208.90355396 600.2466712 -194.74992766 607.89729238 -181 614 C-180.38785645 614.27682617 -179.77571289 614.55365234 -179.14501953 614.83886719 C-139.39101908 632.43890264 -88.25406589 629.89160822 -48.19995117 614.64208984 C-32.88686674 608.465224 -18.88078664 600.28652063 -6 590 C-5.0409375 589.25105469 -4.081875 588.50210938 -3.09375 587.73046875 C19.55453244 569.67041594 37.23805924 547.86952843 52 523 C55.3 524.32 58.6 525.64 62 527 C57.391166 559.26183803 25.42218123 592.5687408 0.4387207 611.39770508 C-6.42918384 616.44349681 -13.55609684 620.86344889 -21 625 C-21.99700928 625.56412598 -21.99700928 625.56412598 -23.01416016 626.13964844 C-36.58131812 633.78338844 -50.50833106 639.70948713 -65.5625 643.75 C-66.25649902 643.9365918 -66.95049805 644.12318359 -67.66552734 644.31542969 C-70.1004434 644.93120641 -72.54501584 645.46958226 -75 646 C-76.12092041 646.26111572 -77.24184082 646.52223145 -78.39672852 646.79125977 C-90.88850541 649.48771779 -103.37535445 649.49075023 -116.10961914 649.44604492 C-119.79565428 649.43753887 -123.48013258 649.46638838 -127.16601562 649.49804688 C-163.95093744 649.60657974 -200.22116915 638.42724072 -229 615 C-229.56992676 614.5369043 -230.13985352 614.07380859 -230.72705078 613.59667969 C-261.59019839 588.34274038 -279.79007471 553.6579497 -284 514 C-284.28557535 508.66307887 -284.34086724 503.34221173 -284.3125 498 C-284.30976578 496.92416656 -284.30976578 496.92416656 -284.30697632 495.82659912 C-284.13346678 455.04451104 -271.77219734 415.27738335 -245 384 C-244.30261719 383.18015625 -243.60523438 382.3603125 -242.88671875 381.515625 C-218.54151886 353.66782974 -183.73128443 336.01183906 -147 332 C-141.62161021 331.71192103 -136.25876118 331.65861111 -130.875 331.6875 C-130.15011383 331.68965515 -129.42522766 331.6918103 -128.67837524 331.69403076 C-81.8842794 331.91678315 -42.78769791 352.46359067 -10 385 C-4.17919508 390.94997949 1.20299456 397.19449228 6 404 C18.15872748 381.50635417 21.70444631 356.70434603 14.43017578 332.0703125 C7.64808115 310.9201049 -8.99834972 295.9463388 -24.25 280.625 C-24.72167603 280.15046387 -25.19335205 279.67592773 -25.67932129 279.18701172 C-30.72461411 274.12021969 -35.81125693 269.16753634 -41.23925781 264.51123047 C-44.32503499 261.86273342 -47.29512134 259.09038503 -50.28564453 256.33520508 C-50.80755371 255.85462646 -51.32946289 255.37404785 -51.8671875 254.87890625 C-52.38764648 254.39953613 -52.90810547 253.92016602 -53.44433594 253.42626953 C-54.93800839 252.05683537 -56.4414635 250.69809464 -57.9453125 249.33984375 C-68.48598197 239.79702432 -78.92346273 229.96670276 -88 219 C-88.99605786 217.84111498 -89.99215582 216.68226444 -90.98828125 215.5234375 C-111.6210157 191.21124909 -121.16228357 162.98377778 -119 131 C-116.83016735 105.39396564 -107.43904226 84.25863746 -92 64 C-91.00806641 62.6696875 -91.00806641 62.6696875 -89.99609375 61.3125 C-78.75578009 46.88266486 -65.28192669 34.03761964 -50 24 C-49.35853027 23.57283691 -48.71706055 23.14567383 -48.05615234 22.70556641 C-13.73142458 0 -13.73142458 0 0 0 Z " fill="#202428" transform="translate(437,171)"/>
<path d="M0 0 C0.88131088 -0.00979385 1.76262177 -0.01958771 2.67063904 -0.02967834 C32.56202549 -0.29302919 60.51058215 2.2593446 89.453125 10.23828125 C90.64099609 10.56505859 91.82886719 10.89183594 93.05273438 11.22851562 C125.21727841 20.19349158 156.94819393 30.81300849 188.48449707 41.76147461 C215.31278214 51.07496125 242.60531863 60.50011957 270.453125 66.23828125 C271.4440918 66.44420898 272.43505859 66.65013672 273.45605469 66.86230469 C288.00092181 69.74938556 302.29328699 70.62105883 317.078125 70.67578125 C318.26405243 70.68517731 318.26405243 70.68517731 319.47393799 70.69476318 C346.2674074 70.82936168 370.86294822 64.38163093 390.453125 45.23828125 C395.6756353 39.56299726 400.15698529 33.50269796 404.1640625 26.91796875 C405.453125 25.23828125 405.453125 25.23828125 408.453125 24.23828125 C405.67469987 44.41009948 401.00247281 62.71330418 392.453125 81.23828125 C392.15116211 81.89731445 391.84919922 82.55634766 391.53808594 83.23535156 C385.75430988 95.71409074 378.31050566 106.74750529 369.453125 117.23828125 C368.75445313 118.07230469 368.05578125 118.90632813 367.3359375 119.765625 C361.91277723 126.02831364 356.01438718 131.19956837 349.453125 136.23828125 C348.92009766 136.66222168 348.38707031 137.08616211 347.83789062 137.52294922 C322.50429107 157.65595212 290.88902081 169.32960207 258.453125 170.23828125 C257.73431152 170.25874512 257.01549805 170.27920898 256.27490234 170.30029297 C198.98161986 171.6904047 145.88019539 151.38738065 93.22521973 131.13191223 C-2.50872431 92.5061004 -2.50872431 92.5061004 -101.78515625 103.61328125 C-117.71177141 111.06054222 -127.7496278 122.28412072 -134.546875 138.23828125 C-141.1989843 157.51483157 -140.36919716 179.89537453 -131.92578125 198.49609375 C-122.24751411 217.74295929 -107.70024379 228.86633776 -87.78125 236.265625 C-57.22365904 245.68598663 -24.4698731 237.86808162 3.453125 224.23828125 C6.49642839 228.62063813 6.49642839 228.62063813 6.3046875 231.35546875 C1.2338363 242.56716727 -16.24478723 250.70921934 -26.921875 254.9921875 C-55.27299445 264.73788481 -86.70097378 264.61864718 -113.89453125 251.640625 C-136.49089403 240.03851592 -154.03304557 219.95598283 -162.09375 195.81640625 C-163.38644874 191.65464716 -164.56518204 187.48450799 -165.546875 183.23828125 C-165.73233887 182.458479 -165.91780273 181.67867676 -166.10888672 180.87524414 C-167.90059462 172.39699744 -167.94563448 163.92421011 -167.921875 155.30078125 C-167.92099884 154.52482605 -167.92012268 153.74887085 -167.91921997 152.94940186 C-167.87337265 140.63027399 -167.03474514 129.11568876 -163.546875 117.23828125 C-163.31613281 116.40796387 -163.08539063 115.57764648 -162.84765625 114.72216797 C-151.62644146 75.01005136 -125.63242102 43.91367255 -90.04296875 23.640625 C-62.72278971 8.51507983 -31.24601074 0.2903241 0 0 Z " fill="#202428" transform="translate(290.546875,-0.23828125)"/>
<path d="M0 0 C1.33332095 2.6666419 0.67102033 4.16680303 0 7 C-0.61875 7.144375 -1.2375 7.28875 -1.875 7.4375 C-4.03258322 7.93152225 -4.03258322 7.93152225 -6 9 C-4.68775452 5.06326356 -3.08089673 2.77280706 0 0 Z " fill="#1B1D22" transform="translate(698,24)"/>
<path d="" fill="#000000" transform="translate(0,0)"/>
<path d="" fill="#000000" transform="translate(0,0)"/>
<path d="" fill="#000000" transform="translate(0,0)"/>
<path d="" fill="#000000" transform="translate(0,0)"/>
<path d="" fill="#000000" transform="translate(0,0)"/>
<path d="" fill="#000000" transform="translate(0,0)"/>
<path d="" fill="#000000" transform="translate(0,0)"/>
<path d="" fill="#000000" transform="translate(0,0)"/>
<path d="" fill="#000000" transform="translate(0,0)"/>
<path d="" fill="#000000" transform="translate(0,0)"/>
<path d="" fill="#000000" transform="translate(0,0)"/>
<path d="" fill="#000000" transform="translate(0,0)"/>
<path d="" fill="#000000" transform="translate(0,0)"/>
<path d="" fill="#000000" transform="translate(0,0)"/>
<path d="" fill="#000000" transform="translate(0,0)"/>
<path d="" fill="#000000" transform="translate(0,0)"/>
<path d="" fill="#000000" transform="translate(0,0)"/>
</svg>
