<?xml version="1.0" encoding="UTF-8"?>
<svg version="1.1" xmlns="http://www.w3.org/2000/svg" width="318" height="158">
<path d="M0 0 C104.94 0 209.88 0 318 0 C318 52.14 318 104.28 318 158 C213.06 158 108.12 158 0 158 C0 105.86 0 53.72 0 0 Z " fill="#3A3A3A" transform="translate(0,0)"/>
<path d="M0 0 C104.94 0 209.88 0 318 0 C318 21.12 318 42.24 318 64 C213.06 64 108.12 64 0 64 C0 42.88 0 21.76 0 0 Z " fill="#FCFCFC" transform="translate(0,94)"/>
<path d="M0 0 C16.5 0 33 0 50 0 C50 16.5 50 33 50 50 C33.5 50 17 50 0 50 C0 33.5 0 17 0 0 Z " fill="#F8F5F5" transform="translate(92,102)"/>
<path d="M0 0 C16.5 0 33 0 50 0 C50 16.17 50 32.34 50 49 C33.5 49 17 49 0 49 C0 32.83 0 16.66 0 0 Z " fill="#DEE4EE" transform="translate(32,102)"/>
<path d="M0 0 C16.17 0 32.34 0 49 0 C49 16.17 49 32.34 49 49 C32.83 49 16.66 49 0 49 C0 32.83 0 16.66 0 0 Z " fill="#D4EFEE" transform="translate(210,102)"/>
<path d="M0 0 C16.17 0 32.34 0 49 0 C49 16.17 49 32.34 49 49 C32.83 49 16.66 49 0 49 C0 32.83 0 16.66 0 0 Z " fill="#F7F1E0" transform="translate(151,102)"/>
<path d="M0 0 C0.99 1.32 1.98 2.64 3 4 C4.32 3.34 5.64 2.68 7 2 C7.99 3.485 7.99 3.485 9 5 C11.56287112 5.40318248 11.56287112 5.40318248 14.4375 5.25 C15.40558594 5.23453125 16.37367188 5.2190625 17.37109375 5.203125 C20.10857454 5.09836677 20.10857454 5.09836677 23 4 C23.73323796 1.98491642 23.73323796 1.98491642 24 0 C24.66 0.33 25.32 0.66 26 1 C26.33 1.99 26.66 2.98 27 4 C27.33 4.66 27.66 5.32 28 6 C28.598125 5.814375 29.19625 5.62875 29.8125 5.4375 C32 5 32 5 35 6 C35 4.02 35 2.04 35 0 C36.32 0 37.64 0 39 0 C39 0.66 39 1.32 39 2 C38.34 2.33 37.68 2.66 37 3 C37 3.66 37 4.32 37 5 C39.97 5 42.94 5 46 5 C46 7.97 46 10.94 46 14 C30.82 14 15.64 14 0 14 C0 9.38 0 4.76 0 0 Z " fill="#FCFCFC" transform="translate(212,135)"/>
<path d="M0 0 C5.61 0 11.22 0 17 0 C17 1.98 17 3.96 17 6 C17.66 6 18.32 6 19 6 C18.814375 5.195625 18.62875 4.39125 18.4375 3.5625 C18.293125 2.716875 18.14875 1.87125 18 1 C19 0 19 0 21.06640625 -0.09765625 C22.30197266 -0.08025391 22.30197266 -0.08025391 23.5625 -0.0625 C24.38878906 -0.05347656 25.21507812 -0.04445313 26.06640625 -0.03515625 C26.70449219 -0.02355469 27.34257812 -0.01195313 28 0 C27.67 0.66 27.34 1.32 27 2 C27.66 2.33 28.32 2.66 29 3 C28.67 3.99 28.34 4.98 28 6 C27.01 6.33 26.02 6.66 25 7 C25.495 8.485 25.495 8.485 26 10 C26.03954234 12.33299825 26.04401732 14.66708189 26 17 C19.375 17.25 19.375 17.25 16 15 C15.67 14.01 15.34 13.02 15 12 C15 13.32 15 14.64 15 16 C9.9228077 16.84619872 5.15031625 17.34335442 0 17 C-2 15.5 -2 15.5 -3 14 C-4.98 14.99 -4.98 14.99 -7 16 C-7 14.35 -7 12.7 -7 11 C-4.50935112 10.31292445 -2.62113708 10 0 10 C0 8.68 0 7.36 0 6 C0.33 5.34 0.66 4.68 1 4 C0.67 2.68 0.34 1.36 0 0 Z " fill="#D1D1D1" transform="translate(221,124)"/>
<path d="M0 0 C9.24 0 18.48 0 28 0 C28 2 28 4 28 6 C26.68 6 25.36 6 24 6 C24.185625 7.27875 24.37125 8.5575 24.5625 9.875 C25.125 13.75 25.125 13.75 24 16 C17.4 16 10.8 16 4 16 C4 15.01 4 14.02 4 13 C3.34 13.66 2.68 14.32 2 15 C1.01 15.33 0.02 15.66 -1 16 C-2 15 -2 15 -2.0625 12.4375 C-2.041875 11.633125 -2.02125 10.82875 -2 10 C-0.68 10 0.64 10 2 10 C2.33 8.68 2.66 7.36 3 6 C2.01 5.67 1.02 5.34 0 5 C0.66 5 1.32 5 2 5 C2 4.34 2 3.68 2 3 C1.34 3 0.68 3 0 3 C0 2.01 0 1.02 0 0 Z " fill="#BDBDBD" transform="translate(107,124)"/>
<path d="M0 0 C2.05078125 0.03255208 4.1015625 0.06510417 6.15234375 0.09765625 C6.48234375 1.41765625 6.81234375 2.73765625 7.15234375 4.09765625 C9.13726017 3.83089421 9.13726017 3.83089421 11.15234375 3.09765625 C11.48234375 2.10765625 11.81234375 1.11765625 12.15234375 0.09765625 C15.12234375 0.09765625 18.09234375 0.09765625 21.15234375 0.09765625 C20.82234375 1.74765625 20.49234375 3.39765625 20.15234375 5.09765625 C19.49234375 3.77765625 18.83234375 2.45765625 18.15234375 1.09765625 C17.16234375 1.42765625 16.17234375 1.75765625 15.15234375 2.09765625 C15.27412063 4.01231992 15.27412063 4.01231992 16.15234375 6.09765625 C17.38984375 6.80921875 17.38984375 6.80921875 18.65234375 7.53515625 C21.15234375 9.09765625 21.15234375 9.09765625 21.96484375 11.78515625 C22.02671875 12.54828125 22.08859375 13.31140625 22.15234375 14.09765625 C19.67542116 16.38404633 18.44768197 17.07402919 15.02734375 17.34765625 C12.15234375 17.09765625 12.15234375 17.09765625 10.15234375 16.09765625 C9.82234375 15.10765625 9.49234375 14.11765625 9.15234375 13.09765625 C8.47171875 13.75765625 7.79109375 14.41765625 7.08984375 15.09765625 C3.50777 17.53651497 1.39714839 17.4305821 -2.84765625 17.09765625 C-3.17765625 15.44765625 -3.50765625 13.79765625 -3.84765625 12.09765625 C-2.85765625 12.42765625 -1.86765625 12.75765625 -0.84765625 13.09765625 C-0.84765625 13.75765625 -0.84765625 14.41765625 -0.84765625 15.09765625 C0.47234375 14.76765625 1.79234375 14.43765625 3.15234375 14.09765625 C3.15234375 13.10765625 3.15234375 12.11765625 3.15234375 11.09765625 C1.61685595 9.63674837 1.61685595 9.63674837 -0.34765625 8.41015625 C-0.99734375 7.97316406 -1.64703125 7.53617188 -2.31640625 7.0859375 C-2.82171875 6.75980469 -3.32703125 6.43367188 -3.84765625 6.09765625 C-2.77957394 0.14691194 -2.77957394 0.14691194 0 0 Z " fill="#414141" transform="translate(115.84765625,34.90234375)"/>
<path d="M0 0 C16.5 0 33 0 50 0 C50 16.5 50 33 50 50 C33.5 50 17 50 0 50 C0 33.5 0 17 0 0 Z M1 1 C1 16.51 1 32.02 1 48 C16.51 48 32.02 48 48 48 C48 32.49 48 16.98 48 1 C32.49 1 16.98 1 1 1 Z " fill="#EE4D53" transform="translate(92,102)"/>
<path d="M0 0 C0.66 0 1.32 0 2 0 C2 1.65 2 3.3 2 5 C2.66 5 3.32 5 4 5 C4 3.35 4 1.7 4 0 C6.64 0 9.28 0 12 0 C12.33 1.65 12.66 3.3 13 5 C13.33 3.35 13.66 1.7 14 0 C15.65 0 17.3 0 19 0 C18.34 1.32 17.68 2.64 17 4 C17.66 4.33 18.32 4.66 19 5 C19.33 3.35 19.66 1.7 20 0 C20.99 0.33 21.98 0.66 23 1 C22.67 1.33 22.34 1.66 22 2 C22.66 2.33 23.32 2.66 24 3 C23.67 3.99 23.34 4.98 23 6 C21.68 6 20.36 6 19 6 C18.67 6.99 18.34 7.98 18 9 C16.68 9 15.36 9 14 9 C12.31369881 12.51033129 12.31369881 12.51033129 12.375 16.3125 C12.684375 17.1478125 12.684375 17.1478125 13 18 C11.68 18.33 10.36 18.66 9 19 C8.67 17.68 8.34 16.36 8 15 C7.2575 15.165 6.515 15.33 5.75 15.5 C3 16 3 16 -1 16 C-1.33 12.7 -1.66 9.4 -2 6 C-2.99 6 -3.98 6 -5 6 C-4 4 -4 4 -1 3 C-0.67 2.01 -0.34 1.02 0 0 Z " fill="#B3B3B3" transform="translate(52,124)"/>
<path d="M0 0 C1.2065625 0.0309375 1.2065625 0.0309375 2.4375 0.0625 C2.7675 2.7025 3.0975 5.3425 3.4375 8.0625 C4.530625 7.98 5.62375 7.8975 6.75 7.8125 C10.4375 8.0625 10.4375 8.0625 12.375 9.625 C14.10953583 13.60422926 14.01981577 17.26702637 12.6875 21.375 C11.4375 23.0625 11.4375 23.0625 7.4375 25.0625 C4.4675 24.7325 1.4975 24.4025 -1.5625 24.0625 C-1.5625 16.8025 -1.5625 9.5425 -1.5625 2.0625 C-2.2225 1.7325 -2.8825 1.4025 -3.5625 1.0625 C-2.5625 0.0625 -2.5625 0.0625 0 0 Z " fill="#D4D4D4" transform="translate(213.5625,26.9375)"/>
<path d="M0 0 C0 0.99 0 1.98 0 3 C-0.99 3 -1.98 3 -3 3 C-3.12375 4.134375 -3.2475 5.26875 -3.375 6.4375 C-3.58125 7.613125 -3.7875 8.78875 -4 10 C-6.70879335 11.35439668 -9.00933268 11.06501451 -12 11 C-9.27521226 14.36591427 -5.93143208 15.44226276 -2 17 C-1.875 19.375 -1.875 19.375 -2 22 C-4 24 -4 24 -6.53125 24.265625 C-7.5109375 24.26046875 -8.490625 24.2553125 -9.5 24.25 C-10.4796875 24.25515625 -11.459375 24.2603125 -12.46875 24.265625 C-15 24 -15 24 -17 22 C-16.67028521 18.70285207 -16.3773161 17.3773161 -14 15 C-14.28983269 11.69316534 -14.28983269 11.69316534 -16 9 C-16.1875 6.0625 -16.1875 6.0625 -16 3 C-14 1 -14 1 -11.6875 0.83984375 C-10.3571875 0.88818359 -10.3571875 0.88818359 -9 0.9375 C-5.65155795 1.0494392 -3.13539712 0 0 0 Z " fill="#EBEBEB" transform="translate(274,34)"/>
<path d="M0 0 C0 0.99 0 1.98 0 3 C-0.99 3 -1.98 3 -3 3 C-3.12375 4.134375 -3.2475 5.26875 -3.375 6.4375 C-3.58125 7.613125 -3.7875 8.78875 -4 10 C-6.70879335 11.35439668 -9.00933268 11.06501451 -12 11 C-12 11.99 -12 12.98 -12 14 C-11.36191406 14.13277344 -10.72382813 14.26554687 -10.06640625 14.40234375 C-8.82697266 14.66724609 -8.82697266 14.66724609 -7.5625 14.9375 C-6.73878906 15.11152344 -5.91507813 15.28554688 -5.06640625 15.46484375 C-3 16 -3 16 -2 17 C-1.75 19.4375 -1.75 19.4375 -2 22 C-5.25082673 24.16721782 -6.29232153 24.27221018 -10.0625 24.25 C-10.94035156 24.25515625 -11.81820312 24.2603125 -12.72265625 24.265625 C-15 24 -15 24 -17 22 C-16.62793814 17.65927829 -14.77048085 13.92584885 -13 10 C-13.99 9.67 -14.98 9.34 -16 9 C-16.125 6.125 -16.125 6.125 -16 3 C-13.33925572 0.33925572 -11.70637611 0.61555806 -8 0.375 C-6.9275 0.30023438 -5.855 0.22546875 -4.75 0.1484375 C-3.1681964 0.06305606 -1.58410626 0 0 0 Z " fill="#EEEEEE" transform="translate(196,34)"/>
<path d="M0 0 C1.90625 0.41015625 1.90625 0.41015625 4.40625 1.91015625 C6.49783203 5.39612629 6.7938776 8.51231331 5.90625 12.41015625 C3.78125 15.41015625 3.78125 15.41015625 0.90625 17.41015625 C-2.41310931 17.95209246 -4.3067978 17.72919093 -7.40625 16.47265625 C-10.12114606 13.15444995 -10.38103775 9.61634362 -10.09375 5.41015625 C-7.7892272 0.50052072 -5.12922311 -0.3732084 0 0 Z " fill="#E2E2E2" transform="translate(249.09375,34.58984375)"/>
<path d="M0 0 C1.2684375 0.0309375 1.2684375 0.0309375 2.5625 0.0625 C3.2225 0.0625 3.8825 0.0625 4.5625 0.0625 C6.89583333 0.0625 9.22916667 0.0625 11.5625 0.0625 C13.00457941 2.94665883 12.65644887 5.47971528 12.625 8.6875 C12.61597656 9.87601563 12.60695312 11.06453125 12.59765625 12.2890625 C12.58605469 13.20429687 12.57445312 14.11953125 12.5625 15.0625 C13.5525 15.0625 14.5425 15.0625 15.5625 15.0625 C15.5625 15.7225 15.5625 16.3825 15.5625 17.0625 C12.9225 17.0625 10.2825 17.0625 7.5625 17.0625 C7.5625 16.4025 7.5625 15.7425 7.5625 15.0625 C8.2225 15.0625 8.8825 15.0625 9.5625 15.0625 C9.2325 11.1025 8.9025 7.1425 8.5625 3.0625 C6.9125 3.3925 5.2625 3.7225 3.5625 4.0625 C3.2325 7.6925 2.9025 11.3225 2.5625 15.0625 C3.2225 15.0625 3.8825 15.0625 4.5625 15.0625 C4.5625 15.7225 4.5625 16.3825 4.5625 17.0625 C1.9225 17.0625 -0.7175 17.0625 -3.4375 17.0625 C-3.4375 16.4025 -3.4375 15.7425 -3.4375 15.0625 C-2.7775 15.0625 -2.1175 15.0625 -1.4375 15.0625 C-1.4375 10.7725 -1.4375 6.4825 -1.4375 2.0625 C-2.0975 1.7325 -2.7575 1.4025 -3.4375 1.0625 C-2.4375 0.0625 -2.4375 0.0625 0 0 Z " fill="#DFDFDF" transform="translate(162.4375,34.9375)"/>
<path d="M0 0 C2.97 0 5.94 0 9 0 C9 0.66 9 1.32 9 2 C8.34 2 7.68 2 7 2 C8.65 6.62 10.3 11.24 12 16 C13.93938819 13.09091772 14.96774957 10.59137621 16.125 7.3125 C16.47820313 6.31863281 16.83140625 5.32476562 17.1953125 4.30078125 C17.46085937 3.54152344 17.72640625 2.78226563 18 2 C17.01 2 16.02 2 15 2 C15 1.34 15 0.68 15 0 C17.64 0 20.28 0 23 0 C23 0.66 23 1.32 23 2 C22.01 2 21.02 2 20 2 C19.773125 3.216875 19.54625 4.43375 19.3125 5.6875 C17.92137325 12.04403536 15.43614681 17.98401914 13 24 C10 23 10 23 8.95678711 21.06640625 C8.49671265 19.82697266 8.49671265 19.82697266 8.02734375 18.5625 C7.68509766 17.66789062 7.34285156 16.77328125 6.99023438 15.8515625 C6.64283203 14.91054688 6.29542969 13.96953125 5.9375 13 C5.24449252 11.14350289 4.54557066 9.28919933 3.83984375 7.4375 C3.53425537 6.61121094 3.22866699 5.78492188 2.91381836 4.93359375 C2.15957178 2.82246172 2.15957178 2.82246172 0 2 C0 1.34 0 0.68 0 0 Z " fill="#E3E3E3" transform="translate(33,28)"/>
<path d="M0 0 C0.8146875 0.00257812 1.629375 0.00515625 2.46875 0.0078125 C3.2834375 0.00523438 4.098125 0.00265625 4.9375 0 C6.96875 0.1328125 6.96875 0.1328125 7.96875 1.1328125 C8.04146741 3.48594805 8.05245868 5.84114918 8.03125 8.1953125 C8.02222656 9.48566406 8.01320313 10.77601562 8.00390625 12.10546875 C7.99230469 13.10449219 7.98070313 14.10351562 7.96875 15.1328125 C8.95875 15.4628125 9.94875 15.7928125 10.96875 16.1328125 C8.20610711 16.73014069 5.80842231 17.1328125 2.96875 17.1328125 C1.7003125 17.1946875 1.7003125 17.1946875 0.40625 17.2578125 C-2.03125 17.1328125 -2.03125 17.1328125 -4.03125 15.1328125 C-4.46875 12.6953125 -4.46875 12.6953125 -4.03125 10.1328125 C-0.75946183 7.49720537 0.68943147 7.1328125 4.96875 7.1328125 C4.63875 5.4828125 4.30875 3.8328125 3.96875 2.1328125 C2.64875 1.8028125 1.32875 1.4728125 -0.03125 1.1328125 C-0.69125 2.4528125 -1.35125 3.7728125 -2.03125 5.1328125 C-2.59375 3.1953125 -2.59375 3.1953125 -3.03125 1.1328125 C-2.03125 0.1328125 -2.03125 0.1328125 0 0 Z " fill="#D4D4D4" transform="translate(99.03125,34.8671875)"/>
<path d="M0 0 C1.9375 1.1875 1.9375 1.1875 3 3 C3 4.65 3 6.3 3 8 C-0.63 8 -4.26 8 -8 8 C-7.34 9.98 -6.68 11.96 -6 14 C-3.36 14 -0.72 14 2 14 C2 14.66 2 15.32 2 16 C-0.88861709 17.44430855 -2.79647701 17.37688506 -6 17 C-8.86972996 15.00366611 -10.65210765 13.52770117 -11.44921875 10.02734375 C-11.63266213 6.64312969 -11.23264513 4.37223221 -9.4375 1.5 C-6.08965651 -0.56021138 -3.85985753 -0.49125459 0 0 Z " fill="#E7E7E7" transform="translate(65,35)"/>
<path d="M0 0 C1.65 0 3.3 0 5 0 C5.33 4.29 5.66 8.58 6 13 C7.32 13.33 8.64 13.66 10 14 C11.73956658 12.26043342 11.37190386 9.8063378 11.5625 7.4375 C11.64628906 6.42558594 11.73007813 5.41367187 11.81640625 4.37109375 C11.87699219 3.58863281 11.93757812 2.80617187 12 2 C11.34 2 10.68 2 10 2 C10 1.34 10 0.68 10 0 C11.65 0 13.3 0 15 0 C15 4.95 15 9.9 15 15 C15.66 15.33 16.32 15.66 17 16 C12.00621535 17.07973722 8.02368524 16.98289494 3 16 C2 15 2 15 1.90234375 12.05859375 C1.91394531 10.86363281 1.92554688 9.66867188 1.9375 8.4375 C1.94652344 7.23996094 1.95554688 6.04242188 1.96484375 4.80859375 C1.97644531 3.88175781 1.98804688 2.95492187 2 2 C1.34 2 0.68 2 0 2 C0 1.34 0 0.68 0 0 Z " fill="#E7E7E7" transform="translate(140,35)"/>
<path d="M0 0 C1.670625 0.061875 1.670625 0.061875 3.375 0.125 C3.375 1.445 3.375 2.765 3.375 4.125 C2.715 4.125 2.055 4.125 1.375 4.125 C1.375 3.135 1.375 2.145 1.375 1.125 C0.385 1.455 -0.605 1.785 -1.625 2.125 C-1.955 4.105 -2.285 6.085 -2.625 8.125 C-1.305 8.125 0.015 8.125 1.375 8.125 C1.375 8.785 1.375 9.445 1.375 10.125 C0.055 10.125 -1.265 10.125 -2.625 10.125 C-2.625 14.415 -2.625 18.705 -2.625 23.125 C-1.635 23.125 -0.645 23.125 0.375 23.125 C0.375 23.785 0.375 24.445 0.375 25.125 C-2.595 25.125 -5.565 25.125 -8.625 25.125 C-8.625 24.465 -8.625 23.805 -8.625 23.125 C-7.965 23.125 -7.305 23.125 -6.625 23.125 C-6.625 18.835 -6.625 14.545 -6.625 10.125 C-7.285 10.125 -7.945 10.125 -8.625 10.125 C-8.625 9.465 -8.625 8.805 -8.625 8.125 C-7.635 8.125 -6.645 8.125 -5.625 8.125 C-5.686875 6.701875 -5.686875 6.701875 -5.75 5.25 C-5.56379584 0.59489612 -4.59761607 0.15853849 0 0 Z " fill="#D4D4D4" transform="translate(91.625,26.875)"/>
<path d="M0 0 C1.65 0 3.3 0 5 0 C5 7.59 5 15.18 5 23 C5.66 23 6.32 23 7 23 C7 23.66 7 24.32 7 25 C4.36 25 1.72 25 -1 25 C-1 24.34 -1 23.68 -1 23 C-0.34 23 0.32 23 1 23 C1 16.07 1 9.14 1 2 C0.34 1.67 -0.32 1.34 -1 1 C-0.67 0.67 -0.34 0.34 0 0 Z " fill="#D0D0D0" transform="translate(230,27)"/>
<path d="M0 0 C2.5 0.1875 2.5 0.1875 5 1 C7.45811625 4.68717438 7.31118164 6.64345704 7 11 C6.01 12.485 6.01 12.485 5 14 C2.5 14.3125 2.5 14.3125 0 14 C-2 12 -2 12 -2.265625 9.6875 C-2.26046875 8.800625 -2.2553125 7.91375 -2.25 7 C-2.25515625 6.113125 -2.2603125 5.22625 -2.265625 4.3125 C-2 2 -2 2 0 0 Z " fill="#3F3F3F" transform="translate(245,36)"/>
<path d="M0 0 C1.23556641 0.01740234 1.23556641 0.01740234 2.49609375 0.03515625 C3.32238281 0.04417969 4.14867187 0.05320313 5 0.0625 C5.63808594 0.07410156 6.27617187 0.08570313 6.93359375 0.09765625 C6.60359375 1.74765625 6.27359375 3.39765625 5.93359375 5.09765625 C5.27359375 3.77765625 4.61359375 2.45765625 3.93359375 1.09765625 C2.94359375 1.42765625 1.95359375 1.75765625 0.93359375 2.09765625 C1.05537063 4.01231992 1.05537063 4.01231992 1.93359375 6.09765625 C2.77921875 6.55140625 3.62484375 7.00515625 4.49609375 7.47265625 C5.30046875 8.00890625 6.10484375 8.54515625 6.93359375 9.09765625 C7.43359375 12.16015625 7.43359375 12.16015625 6.93359375 15.09765625 C3.47697044 17.40207179 1.98501494 17.3562576 -2.06640625 17.09765625 C-2.72640625 16.76765625 -3.38640625 16.43765625 -4.06640625 16.09765625 C-4.06640625 14.77765625 -4.06640625 13.45765625 -4.06640625 12.09765625 C-3.07640625 12.42765625 -2.08640625 12.75765625 -1.06640625 13.09765625 C-1.06640625 13.75765625 -1.06640625 14.41765625 -1.06640625 15.09765625 C0.25359375 14.76765625 1.57359375 14.43765625 2.93359375 14.09765625 C2.93359375 13.10765625 2.93359375 12.11765625 2.93359375 11.09765625 C1.39810595 9.63674837 1.39810595 9.63674837 -0.56640625 8.41015625 C-1.21609375 7.97316406 -1.86578125 7.53617188 -2.53515625 7.0859375 C-3.04046875 6.75980469 -3.54578125 6.43367188 -4.06640625 6.09765625 C-2.99738005 0.14165312 -2.99738005 0.14165312 0 0 Z " fill="#ECECEC" transform="translate(201.06640625,34.90234375)"/>
<path d="M0 0 C1.23556641 0.01740234 1.23556641 0.01740234 2.49609375 0.03515625 C3.32238281 0.04417969 4.14867187 0.05320313 5 0.0625 C5.63808594 0.07410156 6.27617187 0.08570313 6.93359375 0.09765625 C6.60359375 1.74765625 6.27359375 3.39765625 5.93359375 5.09765625 C5.27359375 3.77765625 4.61359375 2.45765625 3.93359375 1.09765625 C2.94359375 1.42765625 1.95359375 1.75765625 0.93359375 2.09765625 C1.05537063 4.01231992 1.05537063 4.01231992 1.93359375 6.09765625 C3.17109375 6.80921875 3.17109375 6.80921875 4.43359375 7.53515625 C6.93359375 9.09765625 6.93359375 9.09765625 7.74609375 11.78515625 C7.80796875 12.54828125 7.86984375 13.31140625 7.93359375 14.09765625 C5.45667116 16.38404633 4.22893197 17.07402919 0.80859375 17.34765625 C-2.06640625 17.09765625 -2.06640625 17.09765625 -4.06640625 16.09765625 C-3.73640625 14.44765625 -3.40640625 12.79765625 -3.06640625 11.09765625 C-2.40640625 11.42765625 -1.74640625 11.75765625 -1.06640625 12.09765625 C-1.06640625 13.08765625 -1.06640625 14.07765625 -1.06640625 15.09765625 C0.58359375 15.09765625 2.23359375 15.09765625 3.93359375 15.09765625 C3.21614019 12.63535628 3.21614019 12.63535628 1.93359375 10.09765625 C0.91265625 9.66453125 0.91265625 9.66453125 -0.12890625 9.22265625 C-0.76828125 8.85140625 -1.40765625 8.48015625 -2.06640625 8.09765625 C-2.87890625 4.53515625 -2.87890625 4.53515625 -3.06640625 1.09765625 C-2.06640625 0.09765625 -2.06640625 0.09765625 0 0 Z " fill="#E8E8E8" transform="translate(130.06640625,34.90234375)"/>
<path d="M0 0 C2.05078125 0.03255208 4.1015625 0.06510417 6.15234375 0.09765625 C6.15234375 1.74765625 6.15234375 3.39765625 6.15234375 5.09765625 C5.49234375 3.77765625 4.83234375 2.45765625 4.15234375 1.09765625 C2.83234375 1.09765625 1.51234375 1.09765625 0.15234375 1.09765625 C1.18760103 4.48577099 1.90764963 5.91122263 4.77734375 8.09765625 C7.15234375 10.09765625 7.15234375 10.09765625 7.65234375 12.72265625 C7.15234375 15.09765625 7.15234375 15.09765625 4.15234375 17.09765625 C1.82034987 17.17670689 -0.51598247 17.18564394 -2.84765625 17.09765625 C-3.17765625 15.44765625 -3.50765625 13.79765625 -3.84765625 12.09765625 C-2.85765625 12.42765625 -1.86765625 12.75765625 -0.84765625 13.09765625 C-0.84765625 13.75765625 -0.84765625 14.41765625 -0.84765625 15.09765625 C0.47234375 14.76765625 1.79234375 14.43765625 3.15234375 14.09765625 C3.15234375 13.10765625 3.15234375 12.11765625 3.15234375 11.09765625 C1.61685595 9.63674837 1.61685595 9.63674837 -0.34765625 8.41015625 C-0.99734375 7.97316406 -1.64703125 7.53617188 -2.31640625 7.0859375 C-2.82171875 6.75980469 -3.32703125 6.43367188 -3.84765625 6.09765625 C-2.77957394 0.14691194 -2.77957394 0.14691194 0 0 Z " fill="#EBEBEB" transform="translate(115.84765625,34.90234375)"/>
<path d="M0 0 C1.65 0.33 3.3 0.66 5 1 C5 4.96 5 8.92 5 13 C4.34 13 3.68 13 3 13 C2.67 13.66 2.34 14.32 2 15 C1.34 15 0.68 15 0 15 C0 14.34 0 13.68 0 13 C-0.66 13 -1.32 13 -2 13 C-2.05391993 11.20866022 -2.09275571 9.41686101 -2.125 7.625 C-2.14820313 6.62726562 -2.17140625 5.62953125 -2.1953125 4.6015625 C-2 2 -2 2 0 0 Z " fill="#343434" transform="translate(167,37)"/>
<path d="M0 0 C1.32 0 2.64 0 4 0 C4.66 7.92 5.32 15.84 6 24 C4.35 24 2.7 24 1 24 C1 16.74 1 9.48 1 2 C0.34 1.67 -0.32 1.34 -1 1 C-0.67 0.67 -0.34 0.34 0 0 Z " fill="#DDDDDD" transform="translate(211,27)"/>
<path d="M0 0 C2.625 0.375 2.625 0.375 5 1 C5.05395478 2.62463842 5.09277195 4.24978541 5.125 5.875 C5.14820313 6.77992187 5.17140625 7.68484375 5.1953125 8.6171875 C5 11 5 11 3 13 C0.375 13.125 0.375 13.125 -2 13 C-2.05391993 11.20866022 -2.09275571 9.41686101 -2.125 7.625 C-2.14820313 6.62726562 -2.17140625 5.62953125 -2.1953125 4.6015625 C-2 2 -2 2 0 0 Z " fill="#383838" transform="translate(218,37)"/>
<path d="M0 0 C3.66666667 0 7.33333333 0 11 0 C11 0.99 11 1.98 11 3 C9.35 3.33 7.7 3.66 6 4 C5.67 7.63 5.34 11.26 5 15 C5.66 15 6.32 15 7 15 C7 15.66 7 16.32 7 17 C4.69 17 2.38 17 0 17 C0 16.34 0 15.68 0 15 C0.66 15 1.32 15 2 15 C2 10.71 2 6.42 2 2 C1.34 2 0.68 2 0 2 C0 1.34 0 0.68 0 0 Z " fill="#EBEBEB" transform="translate(71,35)"/>
<path d="M0 0 C0.99 0 1.98 0 3 0 C3.66 0.99 4.32 1.98 5 3 C5.99 2.01 6.98 1.02 8 0 C8.99 0.33 9.98 0.66 11 1 C11 4.63 11 8.26 11 12 C5.62025316 9.84810127 5.62025316 9.84810127 3 7 C1.68036291 5.98199424 0.34990354 4.97751635 -1 4 C-0.67 2.68 -0.34 1.36 0 0 Z " fill="#434343" transform="translate(131,36)"/>
<path d="M0 0 C1.32 0 2.64 0 4 0 C5.09506492 3.28519475 5.09960608 5.73663415 5.0625 9.1875 C5.05347656 10.27417969 5.04445312 11.36085938 5.03515625 12.48046875 C5.02355469 13.31191406 5.01195312 14.14335938 5 15 C5.66 15 6.32 15 7 15 C7 15.66 7 16.32 7 17 C4.36 17 1.72 17 -1 17 C-1 16.34 -1 15.68 -1 15 C-0.34 15 0.32 15 1 15 C1 10.71 1 6.42 1 2 C0.34 1.67 -0.32 1.34 -1 1 C-0.67 0.67 -0.34 0.34 0 0 Z " fill="#D6D6D6" transform="translate(160,35)"/>
<path d="M0 0 C1.23556641 0.01740234 1.23556641 0.01740234 2.49609375 0.03515625 C3.32238281 0.04417969 4.14867187 0.05320312 5 0.0625 C5.63808594 0.07410156 6.27617187 0.08570312 6.93359375 0.09765625 C6.60359375 0.75765625 6.27359375 1.41765625 5.93359375 2.09765625 C6.59359375 2.42765625 7.25359375 2.75765625 7.93359375 3.09765625 C7.60359375 4.08765625 7.27359375 5.07765625 6.93359375 6.09765625 C5.94359375 6.42765625 4.95359375 6.75765625 3.93359375 7.09765625 C4.26359375 7.75765625 4.59359375 8.41765625 4.93359375 9.09765625 C2.62359375 9.09765625 0.31359375 9.09765625 -2.06640625 9.09765625 C-3.04790866 6.15314903 -3.22771205 4.16246646 -3.06640625 1.09765625 C-2.06640625 0.09765625 -2.06640625 0.09765625 0 0 Z " fill="#959595" transform="translate(242.06640625,123.90234375)"/>
<path d="M0 0 C1.66666667 0.33333333 3.33333333 0.66666667 5 1 C5.33 0.67 5.66 0.34 6 0 C7.66617115 -0.04063832 9.33388095 -0.042721 11 0 C10.649375 0.5775 10.29875 1.155 9.9375 1.75 C8.85082593 4.35801776 9.06934867 5.39417629 10 8 C8.68 8.33 7.36 8.66 6 9 C5.67 7.68 5.34 6.36 5 5 C3.35 5.33 1.7 5.66 0 6 C-0.38218767 4.34385343 -0.71395102 2.67542976 -1 1 C-0.67 0.67 -0.34 0.34 0 0 Z " fill="#868686" transform="translate(55,134)"/>
<path d="M0 0 C3.63 0 7.26 0 11 0 C11.33 1.65 11.66 3.3 12 5 C8.57703036 5.74010154 5.49869895 6 2 6 C2 6.66 2 7.32 2 8 C1.34 8 0.68 8 0 8 C0 5.36 0 2.72 0 0 Z " fill="#989898" transform="translate(163,134)"/>
<path d="M0 0 C3.3 0 6.6 0 10 0 C10 1.98 10 3.96 10 6 C9.21625 5.95875 8.4325 5.9175 7.625 5.875 C4.83883881 5.71271266 4.83883881 5.71271266 3 8 C2.97624074 9.9931567 2.97624074 9.9931567 3.375 12.125 C3.684375 14.043125 3.684375 14.043125 4 16 C3.34 16 2.68 16 2 16 C2 14.35 2 12.7 2 11 C1.34 10.67 0.68 10.34 0 10 C0 6 0 6 1 4 C0.67 2.68 0.34 1.36 0 0 Z " fill="#8B8B8B" transform="translate(221,124)"/>
<path d="M0 0 C1.23556641 0.01740234 1.23556641 0.01740234 2.49609375 0.03515625 C3.32238281 0.04417969 4.14867187 0.05320312 5 0.0625 C5.63808594 0.07410156 6.27617187 0.08570312 6.93359375 0.09765625 C6.93359375 2.09765625 6.93359375 4.09765625 6.93359375 6.09765625 C5.61359375 6.09765625 4.29359375 6.09765625 2.93359375 6.09765625 C2.93359375 6.75765625 2.93359375 7.41765625 2.93359375 8.09765625 C1.28359375 8.42765625 -0.36640625 8.75765625 -2.06640625 9.09765625 C-3.04790866 6.15314903 -3.22771205 4.16246646 -3.06640625 1.09765625 C-2.06640625 0.09765625 -2.06640625 0.09765625 0 0 Z " fill="#7F7F7F" transform="translate(187.06640625,123.90234375)"/>
<path d="M0 0 C0.33 0.66 0.66 1.32 1 2 C2.32 2 3.64 2 5 2 C5 6.29 5 10.58 5 15 C4.34 15 3.68 15 3 15 C2.67 15.66 2.34 16.32 2 17 C2 16.01 2 15.02 2 14 C1.34 14 0.68 14 0 14 C0 9.38 0 4.76 0 0 Z " fill="#333333" transform="translate(156,35)"/>
<path d="M0 0 C0 0.99 0 1.98 0 3 C-0.99 3 -1.98 3 -3 3 C-3.33 5.31 -3.66 7.62 -4 10 C-5.32 10.33 -6.64 10.66 -8 11 C-7.67 8.69 -7.34 6.38 -7 4 C-8.65 3.67 -10.3 3.34 -12 3 C-12.66 4.32 -13.32 5.64 -14 7 C-14.66 5.68 -15.32 4.36 -16 3 C-13.33925572 0.33925572 -11.70637611 0.61555806 -8 0.375 C-6.9275 0.30023438 -5.855 0.22546875 -4.75 0.1484375 C-3.1681964 0.06305606 -1.58410626 0 0 0 Z " fill="#E3E3E3" transform="translate(196,34)"/>
<path d="M0 0 C0.8146875 0.00257812 1.629375 0.00515625 2.46875 0.0078125 C3.2834375 0.00523438 4.098125 0.00265625 4.9375 0 C6.96875 0.1328125 6.96875 0.1328125 7.96875 1.1328125 C8.04146741 3.48594805 8.05245868 5.84114918 8.03125 8.1953125 C8.02222656 9.48566406 8.01320313 10.77601562 8.00390625 12.10546875 C7.99230469 13.10449219 7.98070313 14.10351562 7.96875 15.1328125 C8.95875 15.4628125 9.94875 15.7928125 10.96875 16.1328125 C9.31875 16.4628125 7.66875 16.7928125 5.96875 17.1328125 C5.90816406 16.21757813 5.84757812 15.30234375 5.78515625 14.359375 C5.65947266 12.57660156 5.65947266 12.57660156 5.53125 10.7578125 C5.45003906 9.57445312 5.36882812 8.39109375 5.28515625 7.171875 C5.15790064 4.21762349 5.15790064 4.21762349 3.96875 2.1328125 C1.94411745 1.48067958 1.94411745 1.48067958 -0.03125 1.1328125 C-0.69125 2.4528125 -1.35125 3.7728125 -2.03125 5.1328125 C-2.59375 3.1953125 -2.59375 3.1953125 -3.03125 1.1328125 C-2.03125 0.1328125 -2.03125 0.1328125 0 0 Z " fill="#F2F2F2" transform="translate(99.03125,34.8671875)"/>
<path d="M0 0 C1.23556641 0.01740234 1.23556641 0.01740234 2.49609375 0.03515625 C3.32238281 0.04417969 4.14867187 0.05320312 5 0.0625 C5.63808594 0.07410156 6.27617187 0.08570312 6.93359375 0.09765625 C6.93359375 2.09765625 6.93359375 4.09765625 6.93359375 6.09765625 C5.61359375 6.09765625 4.29359375 6.09765625 2.93359375 6.09765625 C2.93359375 6.75765625 2.93359375 7.41765625 2.93359375 8.09765625 C2.27359375 8.09765625 1.61359375 8.09765625 0.93359375 8.09765625 C0.93359375 7.43765625 0.93359375 6.77765625 0.93359375 6.09765625 C-0.05640625 6.09765625 -1.04640625 6.09765625 -2.06640625 6.09765625 C-2.44859392 4.44150968 -2.78035727 2.77308601 -3.06640625 1.09765625 C-2.06640625 0.09765625 -2.06640625 0.09765625 0 0 Z " fill="#A5A5A5" transform="translate(128.06640625,123.90234375)"/>
<path d="M0 0 C1.1446875 0.2784375 1.1446875 0.2784375 2.3125 0.5625 C5.08967375 1.22819173 5.08967375 1.22819173 8 0 C9 0 10 0 11 0 C11 1.98 11 3.96 11 6 C10.34 6 9.68 6 9 6 C8.67 5.34 8.34 4.68 8 4 C7.67 4.66 7.34 5.32 7 6 C1.25 6.125 1.25 6.125 -1 5 C-0.67 3.35 -0.34 1.7 0 0 Z " fill="#A1A1A1" transform="translate(151,58)"/>
<path d="M0 0 C1.23556641 0.01740234 1.23556641 0.01740234 2.49609375 0.03515625 C3.32238281 0.04417969 4.14867188 0.05320313 5 0.0625 C5.63808594 0.07410156 6.27617188 0.08570313 6.93359375 0.09765625 C7.26359375 1.74765625 7.59359375 3.39765625 7.93359375 5.09765625 C4.13601154 6.11034484 1.73117596 6.11034484 -2.06640625 5.09765625 C-2.62890625 3.16015625 -2.62890625 3.16015625 -3.06640625 1.09765625 C-2.06640625 0.09765625 -2.06640625 0.09765625 0 0 Z " fill="#848484" transform="translate(100.06640625,57.90234375)"/>
<path d="M0 0 C3.45669582 -0.31424507 5.39901677 -0.37956836 8.375 1.5 C10.64534463 4.99283789 10.72392137 7.93938356 10 12 C8.5 14.5 8.5 14.5 7 16 C6.01 15.67 5.02 15.34 4 15 C4.66 14.01 5.32 13.02 6 12 C6.38464895 6.66531571 6.38464895 6.66531571 4 2 C1.94996045 0.80767387 1.94996045 0.80767387 0 0 Z " fill="#F0F0F0" transform="translate(245,35)"/>
<path d="M0 0 C1.65 0 3.3 0 5 0 C5 4.95 5 9.9 5 15 C5.66 15.33 6.32 15.66 7 16 C5.68 16.33 4.36 16.66 3 17 C1.99890485 13.68929162 1.89643866 10.69915231 1.9375 7.25 C1.94652344 6.26515625 1.95554688 5.2803125 1.96484375 4.265625 C1.97644531 3.51796875 1.98804688 2.7703125 2 2 C1.34 2 0.68 2 0 2 C0 1.34 0 0.68 0 0 Z " fill="#EDEDED" transform="translate(150,35)"/>
<path d="M0 0 C1.65 0 3.3 0 5 0 C4.34 1.32 3.68 2.64 3 4 C3.66 4.33 4.32 4.66 5 5 C5.33 3.35 5.66 1.7 6 0 C6.99 0.33 7.98 0.66 9 1 C8.67 1.33 8.34 1.66 8 2 C8.66 2.33 9.32 2.66 10 3 C9.67 3.99 9.34 4.98 9 6 C7.68 6 6.36 6 5 6 C5 6.66 5 7.32 5 8 C4.34 8 3.68 8 3 8 C3 7.34 3 6.68 3 6 C2.34 6 1.68 6 1 6 C1 6.66 1 7.32 1 8 C0.34 8 -0.32 8 -1 8 C-0.67 5.36 -0.34 2.72 0 0 Z " fill="#7B7B7B" transform="translate(66,124)"/>
<path d="M0 0 C0 0.99 0 1.98 0 3 C-0.99 3 -1.98 3 -3 3 C-3.12375 4.134375 -3.2475 5.26875 -3.375 6.4375 C-3.58125 7.613125 -3.7875 8.78875 -4 10 C-6.70879335 11.35439668 -9.00933268 11.06501451 -12 11 C-11.360625 10.773125 -10.72125 10.54625 -10.0625 10.3125 C-7.72806339 9.14749104 -7.72806339 9.14749104 -7.25 6.375 C-7.1675 5.59125 -7.085 4.8075 -7 4 C-9.475 3.01 -9.475 3.01 -12 2 C-12 1.67 -12 1.34 -12 1 C-9.98177083 1.03255208 -7.96354167 1.06510417 -5.9453125 1.09765625 C-3.67210333 0.98353932 -2.2885712 0 0 0 Z " fill="#EDEDED" transform="translate(274,34)"/>
<path d="M0 0 C4.95 0 9.9 0 15 0 C15.33 1.98 15.66 3.96 16 6 C14.35 6 12.7 6 11 6 C10.67 4.68 10.34 3.36 10 2 C9.67 3.32 9.34 4.64 9 6 C8.34 6 7.68 6 7 6 C7 4.68 7 3.36 7 2 C6.01 2 5.02 2 4 2 C3.01 3.485 3.01 3.485 2 5 C2 3.68 2 2.36 2 1 C1.34 0.67 0.68 0.34 0 0 Z " fill="#B5B5B5" transform="translate(67,58)"/>
<path d="M0 0 C0.33 0 0.66 0 1 0 C1.185625 1.2065625 1.185625 1.2065625 1.375 2.4375 C1.58125 3.283125 1.7875 4.12875 2 5 C2.66 5.33 3.32 5.66 4 6 C3.34 8.31 2.68 10.62 2 13 C1.01 13 0.02 13 -1 13 C-2.5121867 9.97562661 -2.17263369 7.33758466 -2 4 C-1 1.5625 -1 1.5625 0 0 Z " fill="#424242" transform="translate(179,38)"/>
<path d="M0 0 C2.31 0 4.62 0 7 0 C7 2.31 7 4.62 7 7 C4.69 7 2.38 7 0 7 C0 4.69 0 2.38 0 0 Z " fill="#AAAAAA" transform="translate(240,134)"/>
<path d="M0 0 C3.3 0 6.6 0 10 0 C10 1.98 10 3.96 10 6 C7.5625 5.625 7.5625 5.625 5 5 C4.67 4.34 4.34 3.68 4 3 C3.67 3.99 3.34 4.98 3 6 C2.01 5.67 1.02 5.34 0 5 C0.66 5 1.32 5 2 5 C2 4.34 2 3.68 2 3 C1.34 3 0.68 3 0 3 C0 2.01 0 1.02 0 0 Z " fill="#626262" transform="translate(166,124)"/>
<path d="M0 0 C0.66 0 1.32 0 2 0 C2.33 1.32 2.66 2.64 3 4 C3.66 4 4.32 4 5 4 C5 2.68 5 1.36 5 0 C5.66 0 6.32 0 7 0 C7 0.66 7 1.32 7 2 C8.65 2.33 10.3 2.66 12 3 C12 3.66 12 4.32 12 5 C11.01 5.33 10.02 5.66 9 6 C9.66 6.66 10.32 7.32 11 8 C10.05125 7.814375 9.1025 7.62875 8.125 7.4375 C5.10131207 6.71313368 5.10131207 6.71313368 3 8 C2.01 5.36 1.02 2.72 0 0 Z " fill="#787878" transform="translate(216,112)"/>
<path d="M0 0 C1.67542976 0.28604898 3.34385343 0.61781233 5 1 C5.625 2.8125 5.625 2.8125 6 5 C5.01 6.485 5.01 6.485 4 8 C2.35 7.67 0.7 7.34 -1 7 C-1.04254356 5.00045254 -1.04080783 2.99958364 -1 1 C-0.67 0.67 -0.34 0.34 0 0 Z " fill="#414141" transform="translate(184,36)"/>
<path d="M0 0 C0.7425 0.185625 1.485 0.37125 2.25 0.5625 C4.94990963 0.99203108 6.44631077 0.85122974 9 0 C9 2 9 4 9 6 C6.03 6 3.06 6 0 6 C0 4.02 0 2.04 0 0 Z " fill="#969696" transform="translate(84,58)"/>
<path d="M0 0 C2.875 -0.125 2.875 -0.125 6 0 C8 2 8 2 8 5 C4.625 5.625 4.625 5.625 1 6 C0.34 5.34 -0.32 4.68 -1 4 C-0.625 1.875 -0.625 1.875 0 0 Z " fill="#3B3B3B" transform="translate(183,51)"/>
<path d="M0 0 C1.65 0.33 3.3 0.66 5 1 C5.625 3.375 5.625 3.375 6 6 C5.34 6.66 4.68 7.32 4 8 C1.875 7.625 1.875 7.625 0 7 C-1.125 2.25 -1.125 2.25 0 0 Z " fill="#3C3C3C" transform="translate(262,36)"/>
<path d="M0 0 C2.875 -0.125 2.875 -0.125 6 0 C6.66 0.66 7.32 1.32 8 2 C7.625 4.125 7.625 4.125 7 6 C5.00045254 6.04254356 2.99958364 6.04080783 1 6 C0 5 0 5 -0.0625 2.4375 C-0.041875 1.633125 -0.02125 0.82875 0 0 Z " fill="#393939" transform="translate(261,51)"/>
<path d="M0 0 C0.86625 0.5259375 0.86625 0.5259375 1.75 1.0625 C4.38449209 2.16020504 5.35000247 1.82241303 8 1 C9 2 9 2 9.0625 4.5625 C9.041875 5.366875 9.02125 6.17125 9 7 C7 6 7 6 6 3 C6 4.32 6 5.64 6 7 C4.34385343 7.38218767 2.67542976 7.71395102 1 8 C0 7 0 7 -0.0625 3.4375 C-0.041875 2.303125 -0.02125 1.16875 0 0 Z " fill="#767676" transform="translate(230,133)"/>
<path d="M0 0 C0.66 0 1.32 0 2 0 C2 0.99 2 1.98 2 3 C3.32 3.33 4.64 3.66 6 4 C5.67 5.65 5.34 7.3 5 9 C3.35 9 1.7 9 0 9 C0 6.03 0 3.06 0 0 Z " fill="#8D8D8D" transform="translate(44,131)"/>
<path d="M0 0 C2.97 0 5.94 0 9 0 C9 2 9 4 9 6 C6.03 6 3.06 6 0 6 C0.33 5.01 0.66 4.02 1 3 C1 3.66 1 4.32 1 5 C1.66 5 2.32 5 3 5 C3 3.68 3 2.36 3 1 C2.01 1.33 1.02 1.66 0 2 C0 1.34 0 0.68 0 0 Z " fill="#757575" transform="translate(60,114)"/>
<path d="M0 0 C2.0625 0.4375 2.0625 0.4375 4 1 C4.33 2.65 4.66 4.3 5 6 C2.36 6 -0.28 6 -3 6 C-1.125 1.125 -1.125 1.125 0 0 Z " fill="#515151" transform="translate(60,36)"/>
<path d="M0 0 C0.66 0 1.32 0 2 0 C2 2.97 2 5.94 2 9 C0.35 8.67 -1.3 8.34 -3 8 C-2.67 6.35 -2.34 4.7 -2 3 C-1.34 3 -0.68 3 0 3 C0 2.01 0 1.02 0 0 Z " fill="#7C7C7C" transform="translate(179,131)"/>
<path d="M0 0 C2 3 2 3 2 5 C3.65 5.33 5.3 5.66 7 6 C5.68 6.33 4.36 6.66 3 7 C3 7.99 3 8.98 3 10 C3.99 10 4.98 10 6 10 C6 10.66 6 11.32 6 12 C4.35 11.67 2.7 11.34 1 11 C1.33 9.35 1.66 7.7 2 6 C1.01 5.67 0.02 5.34 -1 5 C-0.67 3.35 -0.34 1.7 0 0 Z " fill="#F5F5F5" transform="translate(181,38)"/>
<path d="M0 0 C1.65 0 3.3 0 5 0 C5 1.65 5 3.3 5 5 C4.01 5.33 3.02 5.66 2 6 C2 6.66 2 7.32 2 8 C1.34 8 0.68 8 0 8 C0 5.36 0 2.72 0 0 Z " fill="#848484" transform="translate(163,134)"/>
<path d="M0 0 C4.44936709 -0.36075949 4.44936709 -0.36075949 6.8125 1.1875 C8 3 8 3 8 8 C4.7 8 1.4 8 -2 8 C-2 7.67 -2 7.34 -2 7 C0.31 7 2.62 7 5 7 C3.75023244 3.34683329 3.32901247 2.21934164 0 0 Z " fill="#F7F7F7" transform="translate(60,35)"/>
<path d="M0 0 C0.33 0 0.66 0 1 0 C1.33 2.97 1.66 5.94 2 9 C0.35 9 -1.3 9 -3 9 C-3.33 7.35 -3.66 5.7 -4 4 C-2.68 3.67 -1.36 3.34 0 3 C0 2.01 0 1.02 0 0 Z " fill="#767676" transform="translate(102,131)"/>
<path d="M0 0 C0.99 0.33 1.98 0.66 3 1 C3 1.66 3 2.32 3 3 C5.86724686 2.42655063 6.8614515 2.1385485 9 0 C9.66 0.99 10.32 1.98 11 3 C7.3558226 5.4294516 5.28758728 5.16179575 1 5 C0.67 3.35 0.34 1.7 0 0 Z " fill="#D9D9D9" transform="translate(112,47)"/>
<path d="M0 0 C0.99 0.33 1.98 0.66 3 1 C3 2.66666667 3 4.33333333 3 6 C1.68 6 0.36 6 -1 6 C-1.33 6.66 -1.66 7.32 -2 8 C-2 7.01 -2 6.02 -2 5 C-2.99 4.67 -3.98 4.34 -5 4 C-2.6875 1.9375 -2.6875 1.9375 0 0 Z " fill="#A4A4A4" transform="translate(191,124)"/>
<path d="M0 0 C0.99 0 1.98 0 3 0 C2.34 2.97 1.68 5.94 1 9 C0.34 9 -0.32 9 -1 9 C-1 7.35 -1 5.7 -1 4 C-3.51083114 5.25541557 -3.87125446 6.50063488 -5 9 C-5 7.02 -5 5.04 -5 3 C-3.68 3 -2.36 3 -1 3 C-0.67 2.01 -0.34 1.02 0 0 Z " fill="#595959" transform="translate(57,111)"/>
<path d="M0 0 C0.33 0.66 0.66 1.32 1 2 C3.02463255 2.65213292 3.02463255 2.65213292 5 3 C4.67 4.65 4.34 6.3 4 8 C2.68 8 1.36 8 0 8 C0 5.36 0 2.72 0 0 Z " fill="#767676" transform="translate(111,132)"/>
<path d="M0 0 C0.598125 0.20625 1.19625 0.4125 1.8125 0.625 C0.8225 0.625 -0.1675 0.625 -1.1875 0.625 C-0.8575 2.605 -0.5275 4.585 -0.1875 6.625 C-1.5075 6.625 -2.8275 6.625 -4.1875 6.625 C-4.5175 4.975 -4.8475 3.325 -5.1875 1.625 C-2.1875 -0.375 -2.1875 -0.375 0 0 Z " fill="#D3D3D3" transform="translate(262.1875,50.375)"/>
<path d="M0 0 C1.23556641 0.01740234 1.23556641 0.01740234 2.49609375 0.03515625 C3.32238281 0.04417969 4.14867187 0.05320313 5 0.0625 C5.63808594 0.07410156 6.27617187 0.08570313 6.93359375 0.09765625 C6.60359375 1.74765625 6.27359375 3.39765625 5.93359375 5.09765625 C5.27359375 3.77765625 4.61359375 2.45765625 3.93359375 1.09765625 C0.65585871 1.84915648 0.65585871 1.84915648 -1.06640625 5.09765625 C-1.39640625 4.43765625 -1.72640625 3.77765625 -2.06640625 3.09765625 C-2.72640625 4.08765625 -3.38640625 5.07765625 -4.06640625 6.09765625 C-2.99738005 0.14165312 -2.99738005 0.14165312 0 0 Z " fill="#D5D5D5" transform="translate(201.06640625,34.90234375)"/>
<path d="M0 0 C2.00720923 0.28674418 4.0085944 0.61866701 6 1 C6 2.65 6 4.3 6 6 C5.01 5.34 4.02 4.68 3 4 C1.02 4.99 1.02 4.99 -1 6 C-1.042721 4.33388095 -1.04063832 2.66617115 -1 1 C-0.67 0.67 -0.34 0.34 0 0 Z " fill="#6F6F6F" transform="translate(215,134)"/>
<path d="M0 0 C1.32 0 2.64 0 4 0 C4 1.98 4 3.96 4 6 C2.35 5.67 0.7 5.34 -1 5 C-0.67 3.35 -0.34 1.7 0 0 Z " fill="#929292" transform="translate(55,134)"/>
<path d="M0 0 C1.32 0.66 2.64 1.32 4 2 C3.01 2.33 2.02 2.66 1 3 C1.33 4.65 1.66 6.3 2 8 C0.68 8 -0.64 8 -2 8 C-2.6875 5.6875 -2.6875 5.6875 -3 3 C-1.5625 1.1875 -1.5625 1.1875 0 0 Z " fill="#DBDBDB" transform="translate(182,49)"/>
<path d="M0 0 C1.65 0 3.3 0 5 0 C4.67 1.65 4.34 3.3 4 5 C2.35 5 0.7 5 -1 5 C-0.67 3.35 -0.34 1.7 0 0 Z " fill="#3D3D3D" transform="translate(99,44)"/>
<path d="M0 0 C1.65 0 3.3 0 5 0 C5 1.98 5 3.96 5 6 C3.35 5.67 1.7 5.34 0 5 C0 3.35 0 1.7 0 0 Z " fill="#7B7B7B" transform="translate(226,124)"/>
<path d="M0 0 C2.475 0.495 2.475 0.495 5 1 C4.67 2.65 4.34 4.3 4 6 C2.68 5.67 1.36 5.34 0 5 C0 3.35 0 1.7 0 0 Z " fill="#9D9D9D" transform="translate(39,58)"/>
<path d="M0 0 C1.98 0 3.96 0 6 0 C6 1.65 6 3.3 6 5 C4.02 5.33 2.04 5.66 0 6 C0.66 5.67 1.32 5.34 2 5 C2 4.34 2 3.68 2 3 C1.34 3 0.68 3 0 3 C0 2.01 0 1.02 0 0 Z " fill="#6B6B6B" transform="translate(107,124)"/>
<path d="M0 0 C2.475 0.495 2.475 0.495 5 1 C5 2.32 5 3.64 5 5 C3.0625 5.5625 3.0625 5.5625 1 6 C0 5 0 5 -0.0625 2.4375 C-0.041875 1.633125 -0.02125 0.82875 0 0 Z " fill="#A1A1A1" transform="translate(103,58)"/>
<path d="M0 0 C1.2065625 0.0309375 1.2065625 0.0309375 2.4375 0.0625 C2.086875 0.64 1.73625 1.2175 1.375 1.8125 C0.28832593 4.42051776 0.50684867 5.45667629 1.4375 8.0625 C1.1075 7.4025 0.7775 6.7425 0.4375 6.0625 C-0.5525 6.0625 -1.5425 6.0625 -2.5625 6.0625 C-2.94468767 4.40635343 -3.27645102 2.73792976 -3.5625 1.0625 C-2.5625 0.0625 -2.5625 0.0625 0 0 Z " fill="#707070" transform="translate(128.5625,123.9375)"/>
<path d="M0 0 C2.1519437 3.22791555 2.20086443 4.28400809 2 8 C1.34 8 0.68 8 0 8 C0 6.35 0 4.7 0 3 C-0.99 3 -1.98 3 -3 3 C-3 4.65 -3 6.3 -3 8 C-3.66 8 -4.32 8 -5 8 C-5 6.02 -5 4.04 -5 2 C-3.35 2 -1.7 2 0 2 C0 1.34 0 0.68 0 0 Z " fill="#4A4A4A" transform="translate(234,112)"/>
<path d="M0 0 C2.1519437 3.22791555 2.20086443 4.28400809 2 8 C1.34 8 0.68 8 0 8 C0 6.35 0 4.7 0 3 C-0.99 3 -1.98 3 -3 3 C-3 4.65 -3 6.3 -3 8 C-3.66 8 -4.32 8 -5 8 C-5 6.02 -5 4.04 -5 2 C-3.35 2 -1.7 2 0 2 C0 1.34 0 0.68 0 0 Z " fill="#4D4D4D" transform="translate(175,112)"/>
<path d="M0 0 C2.1519437 3.22791555 2.20086443 4.28400809 2 8 C1.34 8 0.68 8 0 8 C0 6.35 0 4.7 0 3 C-0.99 3 -1.98 3 -3 3 C-3 4.65 -3 6.3 -3 8 C-3.66 8 -4.32 8 -5 8 C-5 6.02 -5 4.04 -5 2 C-3.35 2 -1.7 2 0 2 C0 1.34 0 0.68 0 0 Z " fill="#505050" transform="translate(116,112)"/>
<path d="M0 0 C0.99 0 1.98 0 3 0 C2.01 2.97 1.02 5.94 0 9 C-0.66 9 -1.32 9 -2 9 C-4.125 4.375 -4.125 4.375 -3 1 C-2.67 2.32 -2.34 3.64 -2 5 C-1.34 5 -0.68 5 0 5 C0 3.35 0 1.7 0 0 Z " fill="#6D6D6D" transform="translate(103,111)"/>
<path d="M0 0 C2.31 0 4.62 0 7 0 C7 1.32 7 2.64 7 4 C6.34 4 5.68 4 5 4 C5 3.01 5 2.02 5 1 C4.01 1.33 3.02 1.66 2 2 C1.67 3.98 1.34 5.96 1 8 C0.01 6.68 -0.98 5.36 -2 4 C-1.34 2.68 -0.68 1.36 0 0 Z " fill="#E0E0E0" transform="translate(88,27)"/>
<path d="M0 0 C0.66 0 1.32 0 2 0 C2.33 1.65 2.66 3.3 3 5 C3.99 5 4.98 5 6 5 C6 5.99 6 6.98 6 8 C4.68 7.67 3.36 7.34 2 7 C2 6.34 2 5.68 2 5 C1.34 5 0.68 5 0 5 C0 3.35 0 1.7 0 0 Z " fill="#A3A3A3" transform="translate(123,125)"/>
<path d="M0 0 C0.99 0 1.98 0 3 0 C1.90931332 3.77545388 1.0916909 6.47043472 -2 9 C-4.125 4.375 -4.125 4.375 -3 1 C-2.67 2.32 -2.34 3.64 -2 5 C-1.34 5 -0.68 5 0 5 C0 3.35 0 1.7 0 0 Z " fill="#6C6C6C" transform="translate(162,111)"/>
<path d="M0 0 C2 0 4 0 6 0 C6 1.65 6 3.3 6 5 C4.02 5.33 2.04 5.66 0 6 C0 4.02 0 2.04 0 0 Z " fill="#C2C2C2" transform="translate(54,58)"/>
<path d="M0 0 C1.98 0.495 1.98 0.495 4 1 C3.67 2.65 3.34 4.3 3 6 C1.68 5.67 0.36 5.34 -1 5 C-0.67 3.35 -0.34 1.7 0 0 Z " fill="#767676" transform="translate(128,134)"/>
<path d="M0 0 C1.32 0 2.64 0 4 0 C4 1.98 4 3.96 4 6 C2.68 6 1.36 6 0 6 C0 4.02 0 2.04 0 0 Z " fill="#999999" transform="translate(172,124)"/>
<path d="M0 0 C1.32 0 2.64 0 4 0 C4 1.98 4 3.96 4 6 C2.68 6 1.36 6 0 6 C0 4.02 0 2.04 0 0 Z " fill="#BABABA" transform="translate(84,58)"/>
<path d="M0 0 C1.66666667 0 3.33333333 0 5 0 C5 1.65 5 3.3 5 5 C4.01 5.33 3.02 5.66 2 6 C1.34 5.67 0.68 5.34 0 5 C0 3.35 0 1.7 0 0 Z " fill="#A1A1A1" transform="translate(135,58)"/>
<path d="M0 0 C0.66 0.33 1.32 0.66 2 1 C2 1.99 2 2.98 2 4 C3.65 4.33 5.3 4.66 7 5 C7 5.33 7 5.66 7 6 C1.25 6.125 1.25 6.125 -1 5 C-0.67 3.35 -0.34 1.7 0 0 Z " fill="#D5D5D5" transform="translate(127,46)"/>
<path d="M0 0 C1.32 0 2.64 0 4 0 C4 1.98 4 3.96 4 6 C2.68 5.67 1.36 5.34 0 5 C0 3.35 0 1.7 0 0 Z " fill="#717171" transform="translate(105,134)"/>
<path d="M0 0 C1.66666667 0 3.33333333 0 5 0 C5 1.98 5 3.96 5 6 C4.01 5.67 3.02 5.34 2 5 C1.01 5.495 1.01 5.495 0 6 C0 4.02 0 2.04 0 0 Z " fill="#B7B7B7" transform="translate(45,58)"/>
<path d="M0 0 C0.99 0.33 1.98 0.66 3 1 C3 1.66 3 2.32 3 3 C4.65 3.33 6.3 3.66 8 4 C8 4.33 8 4.66 8 5 C2.25 5.125 2.25 5.125 0 4 C0 2.68 0 1.36 0 0 Z " fill="#DADADA" transform="translate(197,47)"/>
<path d="M0 0 C0.99 0 1.98 0 3 0 C3.33 1.65 3.66 3.3 4 5 C2.35 4.67 0.7 4.34 -1 4 C-0.67 2.68 -0.34 1.36 0 0 Z " fill="#3B3B3B" transform="translate(131,36)"/>
<path d="M0 0 C0.99 0 1.98 0 3 0 C3.33 1.98 3.66 3.96 4 6 C2.68 6.33 1.36 6.66 0 7 C0 5.68 0 4.36 0 3 C-0.33 2.67 -0.66 2.34 -1 2 C-0.67 1.34 -0.34 0.68 0 0 Z " fill="#727272" transform="translate(249,134)"/>
<path d="M0 0 C0.33 0.99 0.66 1.98 1 3 C-2.4019487 5.09350689 -5.05272412 5.17942163 -9 5 C-6.3534665 2.3534665 -3.43778736 1.40058003 0 0 Z " fill="#DEDEDE" transform="translate(224,47)"/>
<path d="M0 0 C2.64 0 5.28 0 8 0 C8 0.66 8 1.32 8 2 C7.01 2 6.02 2 5 2 C5 2.66 5 3.32 5 4 C4.34 4 3.68 4 3 4 C3 3.34 3 2.68 3 2 C2.01 2 1.02 2 0 2 C0 1.34 0 0.68 0 0 Z " fill="#D0D0D0" transform="translate(48,28)"/>
<path d="M0 0 C1.98 0.495 1.98 0.495 4 1 C4 1.66 4 2.32 4 3 C3.01 3.33 2.02 3.66 1 4 C1.66 4.66 2.32 5.32 3 6 C1.68 5.67 0.36 5.34 -1 5 C-0.67 3.35 -0.34 1.7 0 0 Z " fill="#606060" transform="translate(224,114)"/>
<path d="M0 0 C1.98 0.495 1.98 0.495 4 1 C4 1.66 4 2.32 4 3 C3.01 3.33 2.02 3.66 1 4 C1.66 4.66 2.32 5.32 3 6 C1.68 5.67 0.36 5.34 -1 5 C-0.67 3.35 -0.34 1.7 0 0 Z " fill="#616161" transform="translate(165,114)"/>
<path d="M0 0 C1.98 0.495 1.98 0.495 4 1 C4 1.66 4 2.32 4 3 C3.01 3.33 2.02 3.66 1 4 C1.66 4.66 2.32 5.32 3 6 C1.68 5.67 0.36 5.34 -1 5 C-0.67 3.35 -0.34 1.7 0 0 Z " fill="#616161" transform="translate(106,114)"/>
<path d="M0 0 C1.32 0 2.64 0 4 0 C4 1.98 4 3.96 4 6 C2.68 6 1.36 6 0 6 C0.33 5.34 0.66 4.68 1 4 C0.60061233 1.90178785 0.60061233 1.90178785 0 0 Z " fill="#686868" transform="translate(243,114)"/>
<path d="M0 0 C0.33 0.66 0.66 1.32 1 2 C0.34 2 -0.32 2 -1 2 C-1 2.99 -1 3.98 -1 5 C-3.475 4.01 -3.475 4.01 -6 3 C-6 2.34 -6 1.68 -6 1 C-4.02 0.67 -2.04 0.34 0 0 Z " fill="#4D4D4D" transform="translate(268,44)"/>
<path d="M0 0 C2.33333333 0 4.66666667 0 7 0 C7 0.99 7 1.98 7 3 C5.02 3.33 3.04 3.66 1 4 C0.67 2.68 0.34 1.36 0 0 Z " fill="#D5D5D5" transform="translate(75,35)"/>
<path d="M0 0 C1.98 0.495 1.98 0.495 4 1 C3.67 2.32 3.34 3.64 3 5 C3 4.34 3 3.68 3 3 C2.34 3 1.68 3 1 3 C1 3.66 1 4.32 1 5 C0.34 5 -0.32 5 -1 5 C-0.67 3.35 -0.34 1.7 0 0 Z " fill="#E0E0E0" transform="translate(118,114)"/>
<path d="M0 0 C1.32 0 2.64 0 4 0 C4 1.32 4 2.64 4 4 C2.35 4.33 0.7 4.66 -1 5 C-0.67 3.35 -0.34 1.7 0 0 Z " fill="#DCDCDC" transform="translate(59,115)"/>
<path d="M0 0 C3 3.75 3 3.75 3 6 C1.35 6 -0.3 6 -2 6 C-1.125 1.125 -1.125 1.125 0 0 Z " fill="#AEAEAE" transform="translate(165,58)"/>
<path d="M0 0 C1.65 0 3.3 0 5 0 C4.67 1.98 4.34 3.96 4 6 C3.01 5.67 2.02 5.34 1 5 C0.67 3.35 0.34 1.7 0 0 Z " fill="#B3B3B3" transform="translate(129,58)"/>
<path d="M0 0 C1.65 0.33 3.3 0.66 5 1 C0.375 5 0.375 5 -3 5 C-2 3 -2 3 0 0 Z " fill="#555555" transform="translate(99,36)"/>
<path d="M0 0 C0.66 1.32 1.32 2.64 2 4 C1.34 4 0.68 4 0 4 C-0.33 5.98 -0.66 7.96 -1 10 C-1.33 10 -1.66 10 -2 10 C-2.33 7.36 -2.66 4.72 -3 2 C-2.01 1.34 -1.02 0.68 0 0 Z " fill="#BCBCBC" transform="translate(226,129)"/>
</svg>
