<?xml version="1.0" encoding="UTF-8"?>
<svg version="1.1" xmlns="http://www.w3.org/2000/svg" width="241" height="121">
<path d="M0 0 C79.53 0 159.06 0 241 0 C241 39.93 241 79.86 241 121 C161.47 121 81.94 121 0 121 C0 81.07 0 41.14 0 0 Z " fill="#1A1A1C" transform="translate(0,0)"/>
<path d="M0 0 C9.97320484 6.13078859 17.17701591 15.41108746 19.9921875 26.83984375 C20.28210898 28.78310123 20.37529563 30.75230194 20.46875 32.71484375 C20.51902344 33.49472656 20.56929688 34.27460937 20.62109375 35.078125 C21.06066314 46.38384968 17.07032609 56.58744921 9.4296875 64.9453125 C-0.43839914 74.23805133 -11.48247336 78.25610083 -24.96484375 78.02734375 C-37.02790607 76.97033938 -47.04901319 70.2893237 -54.73828125 61.21875 C-60.57840658 53.06293228 -62.6699444 44.98762038 -62.71875 35.08984375 C-62.73292969 33.77757812 -62.74710938 32.4653125 -62.76171875 31.11328125 C-62.53125 27.71484375 -62.53125 27.71484375 -60.53125 24.71484375 C-60.39847656 25.32972656 -60.26570312 25.94460937 -60.12890625 26.578125 C-59.95230469 27.38636719 -59.77570313 28.19460937 -59.59375 29.02734375 C-59.33271484 30.22810547 -59.33271484 30.22810547 -59.06640625 31.453125 C-58.53238841 33.86024475 -58.53238841 33.86024475 -57.53125 36.71484375 C-54.74523777 37.64351449 -52.92058911 37.87826592 -50.03125 37.90234375 C-48.87109375 37.92361328 -48.87109375 37.92361328 -47.6875 37.9453125 C-45.23444944 37.85145903 -45.23444944 37.85145903 -42.53125 35.71484375 C-42.53125 36.70484375 -42.53125 37.69484375 -42.53125 38.71484375 C-40.22125 38.71484375 -37.91125 38.71484375 -35.53125 38.71484375 C-35.53125 30.79484375 -35.53125 22.87484375 -35.53125 14.71484375 C-37.84125 14.71484375 -40.15125 14.71484375 -42.53125 14.71484375 C-42.86125 15.37484375 -43.19125 16.03484375 -43.53125 16.71484375 C-44.52125 16.05484375 -45.51125 15.39484375 -46.53125 14.71484375 C-50.23669587 14.51633772 -53.00130387 14.53819504 -56.53125 15.71484375 C-53.44325614 6.85030417 -46.2730114 2.15700003 -38.2421875 -2.05859375 C-25.59647557 -7.78014064 -12.23341519 -6.21110123 0 0 Z " fill="#FCFCFC" transform="translate(209.53125,15.28515625)"/>
<path d="M0 0 C2.31 0 4.62 0 7 0 C8.97116989 4.34514406 9.80813736 8.64888115 10.625 13.3125 C10.7590625 14.05306641 10.893125 14.79363281 11.03125 15.55664062 C11.35886984 17.37025044 11.68008494 19.18501524 12 21 C14.17632171 15.12393139 15.59020636 9.37764406 16.5703125 3.1875 C17 1 17 1 18 0 C20.67058851 -0.14115161 23.32432238 -0.04247107 26 0 C26.18175781 0.75023438 26.36351563 1.50046875 26.55078125 2.2734375 C26.80214844 3.29695313 27.05351563 4.32046875 27.3125 5.375 C27.67794922 6.87160156 27.67794922 6.87160156 28.05078125 8.3984375 C29.25397483 12.96364113 30.64340269 17.47800898 32 22 C33.32 15.07 34.64 8.14 36 1 C38.31 1 40.62 1 43 1 C42.51728668 8.65339321 40.96159796 15.74244316 38.9375 23.125 C38.65583984 24.176875 38.37417969 25.22875 38.08398438 26.3125 C37.3962441 28.87695525 36.70149275 31.43927931 36 34 C33.03 34 30.06 34 27 34 C26.35269196 31.43786446 25.70710712 28.87531515 25.0625 26.3125 C24.88009766 25.59126953 24.69769531 24.87003906 24.50976562 24.12695312 C24.24389648 23.06831055 24.24389648 23.06831055 23.97265625 21.98828125 C23.81031494 21.34415283 23.64797363 20.70002441 23.48071289 20.03637695 C22.93004578 17.70366268 22.47005688 15.35028438 22 13 C20.35 19.93 18.7 26.86 17 34 C13.7 34 10.4 34 7 34 C6.01407444 29.83490324 5.03748494 25.66767017 4.0625 21.5 C3.64581055 19.74042969 3.64581055 19.74042969 3.22070312 17.9453125 C1.82681646 11.96671427 0.59759333 6.11209378 0 0 Z " fill="#F4F4F4" transform="translate(21,20)"/>
<path d="M0 0 C2.31 0 4.62 0 7 0 C7 10.89 7 21.78 7 33 C4.69 33 2.38 33 0 33 C-0.33 32.34 -0.66 31.68 -1 31 C-1.66 31.66 -2.32 32.32 -3 33 C-6.05610339 33.57039258 -8.94031349 33.5337277 -12 33 C-14.75569447 30.81840855 -16.43588747 29.12822506 -18 26 C-18.55601425 20.93206684 -18.55831633 17.07812809 -16.1875 12.5 C-13.32785919 9.23183908 -11.88333988 8.06309571 -7.5 7.75 C-4 8 -4 8 -1 10 C-0.67 6.7 -0.34 3.4 0 0 Z " fill="#F9F9F9" transform="translate(122,21)"/>
<path d="M0 0 C0.99 0.66 1.98 1.32 3 2 C3.33 1.67 3.66 1.34 4 1 C6.31 1 8.62 1 11 1 C11 8.92 11 16.84 11 25 C8.69 25 6.38 25 4 25 C3.67 24.34 3.34 23.68 3 23 C2.34 23.66 1.68 24.32 1 25 C-3.5553576 25.85021409 -7.01515336 25.62862552 -10.9375 23.125 C-13.73462914 18.88692555 -14.96134372 15.09489714 -15 10 C-13.94698281 6.10448242 -12.56200289 2.97585576 -9.07421875 0.796875 C-5.97545968 -0.39360871 -3.28145756 -0.23865146 0 0 Z " fill="#1F1F21" transform="translate(163,29)"/>
<path d="M0 0 C2.31 0 4.62 0 7 0 C7.33 0.66 7.66 1.32 8 2 C8.66 1.34 9.32 0.68 10 0 C16.85441194 -0.78657186 16.85441194 -0.78657186 20.7421875 1.8828125 C23.96988994 6.3390522 23.55827667 9.96213105 23.3125 15.3125 C23.28994141 16.24384766 23.26738281 17.17519531 23.24414062 18.13476562 C23.18542078 20.4248396 23.10336858 22.71157875 23 25 C20.69 25 18.38 25 16 25 C15.67 19.06 15.34 13.12 15 7 C11.29007794 5.59389686 11.29007794 5.59389686 9.29296875 6.92578125 C7.29453168 10.13173316 7.42482386 13.5129052 7.3125 17.1875 C7.27833984 17.93708984 7.24417969 18.68667969 7.20898438 19.45898438 C7.12665706 21.30546838 7.06164719 23.15270994 7 25 C4.69 25 2.38 25 0 25 C0 16.75 0 8.5 0 0 Z " fill="#F6F6F6" transform="translate(78,29)"/>
<path d="M0 0 C2.31 0 4.62 0 7 0 C7.33 5.94 7.66 11.88 8 18 C11.70992206 19.40610314 11.70992206 19.40610314 13.70703125 18.07421875 C15.70546832 14.86826684 15.57517614 11.4870948 15.6875 7.8125 C15.72166016 7.06291016 15.75582031 6.31332031 15.79101562 5.54101562 C15.87334294 3.69453162 15.93835281 1.84729006 16 0 C18.31 0 20.62 0 23 0 C23 7.92 23 15.84 23 24 C20 24 17 24 14 24 C13.01 24.33 12.02 24.66 11 25 C7.5625 25.375 7.5625 25.375 4 25 C1.43808274 22.81896955 0.15065041 21.08933627 -0.31616211 17.71386719 C-0.39378261 15.02743435 -0.34869489 12.37313978 -0.25 9.6875 C-0.23195313 8.75615234 -0.21390625 7.82480469 -0.1953125 6.86523438 C-0.14834888 4.57575803 -0.08269475 2.28841816 0 0 Z " fill="#F8F8F8" transform="translate(73,69)"/>
<path d="M0 0 C2.5625 1.8125 2.5625 1.8125 3.4375 4.5 C3.47875 5.263125 3.52 6.02625 3.5625 6.8125 C0.6875 6.9375 0.6875 6.9375 -2.4375 6.8125 C-3.0975 6.1525 -3.7575 5.4925 -4.4375 4.8125 C-7.52097826 4.64568891 -7.52097826 4.64568891 -10.4375 4.8125 C-10.1075 5.8025 -9.7775 6.7925 -9.4375 7.8125 C-6.7102185 8.77244716 -6.7102185 8.77244716 -3.5 9.375 C2.36159366 10.61159366 2.36159366 10.61159366 4.5625 12.8125 C5.0048824 16.79394156 5.22555693 18.94366678 2.75 22.1875 C-1.60456929 25.4223229 -6.22419055 25.31642271 -11.4375 24.8125 C-14.97536617 23.38229878 -16.07485151 22.55506596 -17.75 19.125 C-17.976875 18.361875 -18.20375 17.59875 -18.4375 16.8125 C-16.1275 16.8125 -13.8175 16.8125 -11.4375 16.8125 C-11.1075 17.4725 -10.7775 18.1325 -10.4375 18.8125 C-8.54216658 19.27773063 -8.54216658 19.27773063 -6.375 19.4375 C-5.075625 19.56125 -3.77625 19.685 -2.4375 19.8125 C-2.7675 18.4925 -3.0975 17.1725 -3.4375 15.8125 C-4.11296875 15.70292969 -4.7884375 15.59335938 -5.484375 15.48046875 C-6.82242188 15.24263672 -6.82242188 15.24263672 -8.1875 15 C-9.06921875 14.84917969 -9.9509375 14.69835937 -10.859375 14.54296875 C-13.70686869 13.73617887 -15.32306384 12.87866136 -17.4375 10.8125 C-18.22777356 5.8337766 -18.22777356 5.8337766 -17.4375 2.8125 C-12.18855056 -2.43644944 -6.61729973 -2.28597627 0 0 Z " fill="#F2F2F2" transform="translate(117.4375,69.1875)"/>
<path d="M0 0 C8.91 0 17.82 0 27 0 C27 1.65 27 3.3 27 5 C23.7 5 20.4 5 17 5 C17 14.24 17 23.48 17 33 C14.69 33 12.38 33 10 33 C10 24.09 10 15.18 10 6 C7.03 6 4.06 6 1 6 C0.67 5.67 0.34 5.34 0 5 C0 3.35 0 1.7 0 0 Z " fill="#F9F9F9" transform="translate(29,60)"/>
<path d="M0 0 C0 1.65 0 3.3 0 5 C-0.639375 5.103125 -1.27875 5.20625 -1.9375 5.3125 C-2.618125 5.539375 -3.29875 5.76625 -4 6 C-4.33 6.99 -4.66 7.98 -5 9 C-3.35 9 -1.7 9 0 9 C0 10.98 0 12.96 0 15 C-1.65 15 -3.3 15 -5 15 C-5 21.27 -5 27.54 -5 34 C-7.64 34 -10.28 34 -13 34 C-13 27.73 -13 21.46 -13 15 C-13.99 15 -14.98 15 -16 15 C-16 13.35 -16 11.7 -16 10 C-14.68 10 -13.36 10 -12 10 C-12.061875 9.071875 -12.12375 8.14375 -12.1875 7.1875 C-12 4 -12 4 -10.625 2.1875 C-7.09971578 -0.38866924 -4.29837938 -0.07959962 0 0 Z " fill="#EAEAEB" transform="translate(148,20)"/>
<path d="M0 0 C2.31 0 4.62 0 7 0 C7 1.98 7 3.96 7 6 C8.98 6 10.96 6 13 6 C13 7.65 13 9.3 13 11 C11.02 11 9.04 11 7 11 C7.33 15.95 7.66 20.9 8 26 C9.65 26 11.3 26 13 26 C13 27.32 13 28.64 13 30 C10.11138291 31.44430855 8.20352299 31.37688506 5 31 C2.3203125 28.96484375 2.3203125 28.96484375 0 26 C-0.36771245 23.1612599 -0.48630804 20.98179849 -0.3125 18.1875 C-0.28994141 17.49462891 -0.26738281 16.80175781 -0.24414062 16.08789062 C-0.18562661 14.39098427 -0.0959548 12.69520139 0 11 C-0.99 11 -1.98 11 -3 11 C-3 9.35 -3 7.7 -3 6 C-2.01 6 -1.02 6 0 6 C0 4.02 0 2.04 0 0 Z " fill="#F7F7F7" transform="translate(126,63)"/>
<path d="M0 0 C2.31 0 4.62 0 7 0 C7.33 0.99 7.66 1.98 8 3 C8.350625 2.505 8.70125 2.01 9.0625 1.5 C11.94374289 -0.73063966 14.47009026 -0.19980621 18 0 C18 1.65 18 3.3 18 5 C16.88625 5.28875 15.7725 5.5775 14.625 5.875 C10.99708908 6.69241329 10.99708908 6.69241329 9 9 C8.69400937 11.56916657 8.48912913 14.04758384 8.375 16.625 C8.31699219 17.68460938 8.31699219 17.68460938 8.2578125 18.765625 C8.16352276 20.50998524 8.08067109 22.25495691 8 24 C5.36 24 2.72 24 0 24 C0 16.08 0 8.16 0 0 Z " fill="#EAEAEB" transform="translate(53,69)"/>
<path d="M0 0 C2.31 0 4.62 0 7 0 C7 11.22 7 22.44 7 34 C4.69 34 2.38 34 0 34 C0 22.78 0 11.56 0 0 Z " fill="#252527" transform="translate(189,20)"/>
<path d="M0 0 C2.31 0 4.62 0 7 0 C7 11.22 7 22.44 7 34 C4.69 34 2.38 34 0 34 C0 22.78 0 11.56 0 0 Z " fill="#262628" transform="translate(178,20)"/>
<path d="M0 0 C2.31 0 4.62 0 7 0 C7 7.92 7 15.84 7 24 C4.69 24 2.38 24 0 24 C0 16.08 0 8.16 0 0 Z " fill="#FCFCFC" transform="translate(67,30)"/>
<path d="M0 0 C2.95612292 0.51732151 3.67518455 1.10839082 5.5 3.4375 C6.37842208 7.73464587 6.19118704 11.36232016 3.8125 15.0625 C1.5 16.4375 1.5 16.4375 -1.125 16.4375 C-3.5 15.4375 -3.5 15.4375 -4.8125 13.8125 C-6.02500142 9.62385874 -6.24526228 5.9672489 -4.3125 2 C-2.5 0.4375 -2.5 0.4375 0 0 Z " fill="#242426" transform="translate(116.5,33.5625)"/>
<path d="M0 0 C2.95612292 0.51732151 3.67518455 1.10839082 5.5 3.4375 C6.12314011 6.48583403 6.0024463 9.37312971 5.5 12.4375 C3.75 15.0625 3.75 15.0625 1.5 16.4375 C-1.27562596 16.4375 -2.23013573 15.68808825 -4.25 13.8125 C-5.99322303 10.50037624 -5.89552314 8.12904926 -5.5 4.4375 C-4.01298805 1.38521232 -3.36475848 0.58883273 0 0 Z " fill="#F2F2F2" transform="translate(161.5,33.5625)"/>
<path d="M0 0 C2.31 0 4.62 0 7 0 C7 1.98 7 3.96 7 6 C4.69 6 2.38 6 0 6 C0 4.02 0 2.04 0 0 Z " fill="#FEFEFE" transform="translate(67,21)"/>
<path d="M0 0 C0.66 0.33 1.32 0.66 2 1 C-0.97 3.97 -3.94 6.94 -7 10 C-7 7 -7 7 -5.46875 5.17578125 C-4.8190625 4.56089844 -4.169375 3.94601563 -3.5 3.3125 C-2.8503125 2.68988281 -2.200625 2.06726563 -1.53125 1.42578125 C-0.77328125 0.72001953 -0.77328125 0.72001953 0 0 Z M-9 10 C-8.34 10.66 -7.68 11.32 -7 12 C-7.99 12.33 -8.98 12.66 -10 13 C-9.67 12.01 -9.34 11.02 -9 10 Z " fill="#EBEBEC" transform="translate(163,18)"/>
</svg>
